<svg width="428" height="108" viewBox="0 0 428 108" fill="none" xmlns="http://www.w3.org/2000/svg">
<path d="M-34.0316 107.542C-34.4259 107.123 -34.4505 103.055 -34.4505 53.9436C-34.4505 2.78593 -34.4259 0.788937 -34.007 0.419123C-33.6619 0.0986172 -33.0705 0 -31.6658 0H-29.7681L-29.8174 53.6477C-29.8914 106.433 -29.8914 107.295 -30.3596 107.641C-31.0989 108.158 -33.5387 108.109 -34.0316 107.542Z" fill="url(#paint0_linear_2_324)"/>
<path d="M49.2412 107.443C48.8961 106.95 48.8469 101.428 48.8469 53.4505V0H50.7691C52.3463 0 52.7899 0.0986171 53.1103 0.443777C53.5046 0.8629 53.5293 4.93086 53.5293 54.0422C53.5293 105.2 53.5046 107.197 53.0857 107.567C52.7653 107.863 52.1738 107.986 51.1141 107.986C49.8326 107.986 49.5615 107.912 49.2412 107.443Z" fill="url(#paint1_linear_2_324)"/>
<path d="M101.24 107.591C100.895 107.246 100.846 102.044 100.846 53.9929C100.846 5.94168 100.895 0.739629 101.24 0.394469C101.512 0.0986172 102.128 0 103.458 0H105.282V53.5984C105.282 102.019 105.233 107.246 104.888 107.591C104.641 107.863 104.05 107.986 103.064 107.986C102.078 107.986 101.487 107.863 101.24 107.591Z" fill="url(#paint2_linear_2_324)"/>
<path d="M184.562 107.542C184.168 107.123 184.144 103.006 184.144 53.5491V0H186.09C187.84 0 188.111 0.0493086 188.432 0.542394C188.777 1.03548 188.826 6.50873 188.826 53.9929C188.826 101.477 188.777 106.95 188.432 107.443C188.111 107.912 187.84 107.986 186.509 107.986C185.326 107.986 184.858 107.887 184.562 107.542Z" fill="url(#paint3_linear_2_324)"/>
<path d="M238.04 107.542C237.646 107.123 237.621 103.055 237.621 53.9436C237.621 2.78593 237.646 0.788937 238.065 0.419123C238.41 0.0986172 239.002 0 240.406 0H242.304L242.255 53.6477C242.181 106.433 242.181 107.295 241.712 107.641C240.973 108.158 238.533 108.109 238.04 107.542Z" fill="url(#paint4_linear_2_324)"/>
<path d="M321.313 107.443C320.968 106.95 320.919 101.428 320.919 53.4505V0H322.866C324.616 0 324.887 0.0493086 325.207 0.542394C325.552 1.03548 325.601 6.50873 325.601 53.9929C325.601 101.477 325.552 106.95 325.207 107.443C324.887 107.912 324.616 107.986 323.26 107.986C321.905 107.986 321.634 107.912 321.313 107.443Z" fill="url(#paint5_linear_2_324)"/>
<path d="M374.816 107.542C374.421 107.123 374.397 103.055 374.397 53.9436C374.397 2.78594 374.421 0.788937 374.84 0.419123C375.185 0.0986172 375.777 0 377.182 0H379.079V53.4505C379.079 101.428 379.03 106.95 378.685 107.443C378.364 107.912 378.093 107.986 376.763 107.986C375.58 107.986 375.111 107.887 374.816 107.542Z" fill="url(#paint6_linear_2_324)"/>
<path d="M458.286 107.641C457.817 107.295 457.817 106.433 457.743 53.6477L457.694 0H459.616C461.194 0 461.637 0.0986171 461.958 0.443777C462.352 0.8629 462.377 4.93086 462.377 54.0422C462.377 105.2 462.352 107.197 461.933 107.567C461.342 108.084 458.976 108.134 458.286 107.641Z" fill="url(#paint7_linear_2_324)"/>
<path d="M3.1565 100.787C2.81148 100.294 2.76219 95.4368 2.76219 53.9929C2.76219 12.549 2.81148 7.69213 3.1565 7.19905C3.47687 6.73062 3.74796 6.65665 5.07875 6.65665C6.26167 6.65665 6.72991 6.75527 7.02564 7.10043C7.41995 7.51955 7.44459 11.1437 7.44459 54.0422C7.44459 98.7404 7.41995 100.54 7.001 100.91C6.68063 101.206 6.08916 101.329 5.02946 101.329C3.74796 101.329 3.47687 101.255 3.1565 100.787Z" fill="url(#paint8_linear_2_324)"/>
<path d="M12.0284 100.959C11.6588 100.59 11.6341 96.5216 11.6341 53.9929C11.6341 11.4643 11.6588 7.39631 12.0284 7.02649C12.3241 6.73064 12.817 6.65668 14.0492 6.70599C15.5032 6.77995 15.725 6.85391 15.9961 7.39631C16.2426 7.88939 16.3165 17.4799 16.3165 53.9929C16.3165 90.5059 16.2426 100.096 15.9961 100.59C15.725 101.132 15.5032 101.206 14.0492 101.28C12.817 101.329 12.3241 101.255 12.0284 100.959Z" fill="url(#paint9_linear_2_324)"/>
<path d="M138.453 100.787C138.108 100.294 138.059 95.4368 138.059 53.9929C138.059 12.549 138.108 7.69213 138.453 7.19905C138.774 6.73062 139.045 6.65665 140.4 6.65665C141.756 6.65665 142.027 6.73062 142.347 7.19905C142.692 7.69213 142.741 12.549 142.741 53.9929C142.741 95.4368 142.692 100.294 142.347 100.787C142.027 101.255 141.756 101.329 140.4 101.329C139.045 101.329 138.774 101.255 138.453 100.787Z" fill="url(#paint10_linear_2_324)"/>
<path d="M147.153 100.91C146.66 100.343 146.512 8.35783 147.005 7.39631C147.276 6.85391 147.498 6.77995 148.952 6.70599C150.184 6.65668 150.677 6.73064 150.972 7.02649C151.342 7.39631 151.367 11.4643 151.367 53.9929C151.367 96.0038 151.317 100.59 150.972 100.935C150.43 101.502 147.621 101.477 147.153 100.91Z" fill="url(#paint11_linear_2_324)"/>
<path d="M275.229 100.787C274.883 100.294 274.834 95.4368 274.834 53.9929C274.834 12.549 274.883 7.69213 275.229 7.19905C275.549 6.73062 275.82 6.65665 277.151 6.65665C278.334 6.65665 278.802 6.75527 279.098 7.10043C279.492 7.51955 279.517 11.1437 279.517 54.0422C279.517 98.7404 279.492 100.54 279.073 100.91C278.753 101.206 278.161 101.329 277.101 101.329C275.82 101.329 275.549 101.255 275.229 100.787Z" fill="url(#paint12_linear_2_324)"/>
<path d="M284.1 100.935C283.755 100.59 283.706 96.0038 283.706 53.9929C283.706 11.982 283.755 7.39628 284.1 7.05112C284.371 6.77993 284.963 6.65665 286.047 6.65665C287.353 6.65665 287.674 6.73062 287.896 7.12509C288.068 7.44559 288.142 22.4847 288.142 53.9929C288.142 85.5011 288.068 100.54 287.896 100.861C287.674 101.255 287.353 101.329 286.047 101.329C284.963 101.329 284.371 101.206 284.1 100.935Z" fill="url(#paint13_linear_2_324)"/>
<path d="M412.078 100.91C411.585 100.343 411.437 8.35783 411.93 7.39631C412.201 6.85391 412.423 6.77995 413.877 6.70599C415.109 6.65668 415.602 6.73064 415.898 7.02649C416.267 7.39631 416.292 11.4643 416.292 53.9929C416.292 96.0038 416.243 100.59 415.898 100.935C415.355 101.502 412.546 101.477 412.078 100.91Z" fill="url(#paint14_linear_2_324)"/>
<path d="M420.9 100.885C420.506 100.466 420.481 97.2612 420.481 53.9436C420.481 9.24536 420.506 7.44559 420.925 7.07578C421.245 6.77993 421.837 6.65665 422.897 6.65665C424.178 6.65665 424.449 6.73062 424.77 7.19905C425.115 7.69213 425.164 12.5244 425.164 53.8696C425.164 90.4566 425.09 100.096 424.843 100.59C424.572 101.132 424.351 101.206 422.921 101.28C421.615 101.329 421.245 101.255 420.9 100.885Z" fill="url(#paint15_linear_2_324)"/>
<path d="M-11.63 88.7061C-12.2215 87.8679 -12.2215 20.1179 -11.63 19.2797C-11.3096 18.8112 -11.0386 18.7373 -9.70777 18.7373C-7.07084 18.7373 -7.34192 14.7433 -7.34192 54.0422C-7.34192 93.3905 -7.07084 89.2485 -9.75706 89.2485C-11.0386 89.2485 -11.3096 89.1746 -11.63 88.7061Z" fill="url(#paint16_linear_2_324)"/>
<path d="M26.8396 88.8047C26.4453 88.3856 26.4206 85.9202 26.4206 53.9436C26.4206 14.472 26.1249 18.6633 28.9097 18.7865C30.2898 18.8605 30.5116 18.9345 30.7827 19.4769C31.2509 20.3891 31.2509 87.5967 30.7827 88.5089C30.5116 89.0513 30.2898 89.1252 28.8604 89.1992C27.5543 89.2485 27.1846 89.1745 26.8396 88.8047Z" fill="url(#paint17_linear_2_324)"/>
<path d="M123.691 88.8048C123.297 88.3857 123.272 85.5997 123.272 53.9436C123.272 14.5954 123.001 18.7373 125.687 18.7373C126.969 18.7373 127.24 18.8112 127.56 19.2797C127.905 19.7728 127.955 23.4709 127.955 53.9929C127.955 84.5149 127.905 88.2131 127.56 88.7062C127.24 89.1746 126.969 89.2485 125.638 89.2485C124.455 89.2485 123.987 89.1499 123.691 88.8048Z" fill="url(#paint18_linear_2_324)"/>
<path d="M162.112 88.8541C161.767 88.5089 161.717 85.008 161.717 53.9929C161.717 14.8665 161.471 18.7373 163.935 18.7373C166.4 18.7373 166.153 14.8665 166.153 53.9929C166.153 93.1193 166.4 89.2485 163.935 89.2485C162.95 89.2485 162.358 89.1253 162.112 88.8541Z" fill="url(#paint19_linear_2_324)"/>
<path d="M260.442 88.7061C260.097 88.213 260.048 84.5149 260.048 53.9929C260.048 23.4709 260.097 19.7727 260.442 19.2797C260.762 18.8112 261.033 18.7373 262.364 18.7373C265.001 18.7373 264.73 14.7433 264.73 54.0422C264.73 93.3905 265.001 89.2485 262.315 89.2485C261.033 89.2485 260.762 89.1746 260.442 88.7061Z" fill="url(#paint20_linear_2_324)"/>
<path d="M298.912 88.8047C298.517 88.3856 298.493 85.9202 298.493 53.9436C298.493 14.472 298.197 18.6633 300.982 18.7865C302.362 18.8605 302.584 18.9345 302.855 19.4769C303.323 20.3891 303.323 87.5967 302.855 88.5089C302.584 89.0513 302.362 89.1252 300.932 89.1992C299.626 89.2485 299.257 89.1745 298.912 88.8047Z" fill="url(#paint21_linear_2_324)"/>
<path d="M397.291 88.8294C396.798 88.2624 396.651 20.4138 397.143 19.4769C397.415 18.9345 397.636 18.8605 399.016 18.7866C401.801 18.6633 401.505 14.4721 401.505 53.9929C401.505 87.0543 401.481 88.4596 401.062 88.8294C400.421 89.4211 397.76 89.4211 397.291 88.8294Z" fill="url(#paint22_linear_2_324)"/>
<path d="M435.687 88.8048C435.293 88.3857 435.268 85.5997 435.268 53.9436C435.268 14.5954 434.997 18.7373 437.683 18.7373C438.965 18.7373 439.236 18.8112 439.556 19.2797C439.901 19.7728 439.95 23.4709 439.95 53.9929C439.95 84.5149 439.901 88.2131 439.556 88.7062C439.236 89.1746 438.965 89.2485 437.634 89.2485C436.451 89.2485 435.983 89.1499 435.687 88.8048Z" fill="url(#paint23_linear_2_324)"/>
<path d="M-41.4495 87.2022L-42.0903 86.5612V21.4246L-41.4495 20.7836C-40.8827 20.2165 -40.6855 20.1672 -39.4533 20.2659C-38.4922 20.3398 -37.9747 20.5124 -37.7529 20.8329C-37.2353 21.5232 -37.2353 86.4626 -37.7529 87.1529C-37.9747 87.4734 -38.4922 87.646 -39.4533 87.72C-40.6855 87.8186 -40.8827 87.7693 -41.4495 87.2022Z" fill="url(#paint24_linear_2_324)"/>
<path d="M56.9794 87.2762C56.4866 86.7831 56.4866 86.4626 56.4866 53.9929C56.4866 21.5232 56.4866 21.2027 56.9794 20.7096C57.6448 20.0439 59.641 20.0193 60.4543 20.6849L61.0457 21.1534V86.8324L60.4543 87.3008C59.641 87.9665 57.6448 87.9418 56.9794 87.2762Z" fill="url(#paint25_linear_2_324)"/>
<path d="M93.8225 87.1529L93.2064 86.5612V21.4246L93.8225 20.8329C94.6111 20.0193 96.287 19.97 97.2481 20.7343L97.8888 21.2273V86.7584L97.2481 87.2515C96.287 88.0158 94.6111 87.9665 93.8225 87.1529Z" fill="url(#paint26_linear_2_324)"/>
<path d="M192.276 87.3255L191.66 86.8324V21.1534L192.276 20.6603C193.065 20.0193 195.357 20.1425 195.874 20.8329C196.392 21.5232 196.392 86.4626 195.874 87.1529C195.357 87.8432 193.065 87.9665 192.276 87.3255Z" fill="url(#paint27_linear_2_324)"/>
<path d="M230.622 87.2022L229.982 86.5612V21.4246L230.622 20.7836C231.189 20.2165 231.386 20.1672 232.619 20.2659C233.58 20.3398 234.097 20.5124 234.319 20.8329C234.837 21.5232 234.837 86.4626 234.319 87.1529C234.097 87.4734 233.58 87.646 232.619 87.72C231.386 87.8186 231.189 87.7693 230.622 87.2022Z" fill="url(#paint28_linear_2_324)"/>
<path d="M329.101 87.3748L328.559 87.005V20.9808L329.101 20.611C329.815 20.1179 331.738 20.1179 332.452 20.611L332.994 20.9808V87.005L332.452 87.3748C332.157 87.5967 331.393 87.7693 330.777 87.7693C330.16 87.7693 329.396 87.5967 329.101 87.3748Z" fill="url(#paint29_linear_2_324)"/>
<path d="M367.472 87.3008L366.88 86.8324V21.1534L367.472 20.6849C368.285 20.0193 370.281 20.0439 370.947 20.7096C371.439 21.2027 371.439 21.5232 371.439 53.9929C371.439 86.4626 371.439 86.7831 370.947 87.2762C370.281 87.9418 368.285 87.9665 367.472 87.3008Z" fill="url(#paint30_linear_2_324)"/>
<path d="M466.32 87.5967C465.309 87.2269 465.334 88.0405 465.334 53.9929C465.334 26.9225 465.383 21.2274 465.679 20.8329C465.901 20.5124 466.418 20.3398 467.379 20.2659C468.612 20.1672 468.809 20.2165 469.376 20.7836L470.016 21.4246V86.5612L469.4 87.1529C468.957 87.6214 468.562 87.7693 467.749 87.7446C467.158 87.7446 466.517 87.6707 466.32 87.5967Z" fill="url(#paint31_linear_2_324)"/>
<path d="M-26.5398 75.5408C-27.0573 74.8751 -27.0573 74.7518 -27.0573 53.9929C-27.0573 33.234 -27.0573 33.1107 -26.5398 32.4451C-26.0962 31.9027 -25.8497 31.804 -24.6914 31.804C-23.681 31.804 -23.2374 31.9273 -22.8678 32.2971C-22.3749 32.7902 -22.3749 33.1107 -22.3749 53.9929C-22.3749 74.8751 -22.3749 75.1956 -22.8678 75.6887C-23.2374 76.0585 -23.681 76.1818 -24.6914 76.1818C-25.8497 76.1818 -26.0962 76.0831 -26.5398 75.5408Z" fill="url(#paint32_linear_2_324)"/>
<path d="M-3.84244 75.7873L-4.38462 75.4175V32.5683L-3.84244 32.1985C-3.00454 31.6068 -0.88514 31.6808 -0.293679 32.3218C0.149917 32.8149 0.174559 33.5298 0.174559 53.9929C0.174559 74.456 0.149917 75.171 -0.293679 75.664C-0.88514 76.305 -3.00454 76.379 -3.84244 75.7873Z" fill="url(#paint33_linear_2_324)"/>
<path d="M19.2985 75.5408C18.7809 74.8751 18.7809 74.7518 18.7809 53.9929C18.7809 33.234 18.7809 33.1107 19.2985 32.4451C19.742 31.9027 19.9885 31.804 21.1468 31.804C22.1572 31.804 22.6008 31.9273 22.9704 32.2971C23.4633 32.7902 23.4633 33.1107 23.4633 53.9929C23.4633 74.8751 23.4633 75.1956 22.9704 75.6887C22.6008 76.0585 22.1572 76.1818 21.1468 76.1818C19.9885 76.1818 19.742 76.0831 19.2985 75.5408Z" fill="url(#paint34_linear_2_324)"/>
<path d="M41.9958 75.7873L41.4536 75.4175V32.5683L41.9958 32.1985C42.3161 31.952 43.0801 31.804 43.8194 31.804C44.9284 31.804 45.1995 31.9027 45.6185 32.4451C46.136 33.1107 46.136 33.234 46.136 53.9929C46.136 74.7518 46.136 74.8751 45.6185 75.5408C45.1995 76.0831 44.9284 76.1818 43.8194 76.1818C43.0801 76.1818 42.3161 76.0338 41.9958 75.7873Z" fill="url(#paint35_linear_2_324)"/>
<path d="M108.732 75.6887C108.239 75.1956 108.239 74.8751 108.239 53.9929C108.239 33.1107 108.239 32.7902 108.732 32.2971C109.102 31.9273 109.546 31.804 110.581 31.804C111.616 31.804 112.059 31.9273 112.429 32.2971C112.922 32.7902 112.922 33.1107 112.922 53.9929C112.922 74.8751 112.922 75.1956 112.429 75.6887C112.059 76.0585 111.616 76.1818 110.581 76.1818C109.546 76.1818 109.102 76.0585 108.732 75.6887Z" fill="url(#paint36_linear_2_324)"/>
<path d="M131.183 75.5408C130.666 74.8751 130.666 74.7518 130.666 53.9929C130.666 33.234 130.666 33.1107 131.183 32.4451C131.602 31.9027 131.873 31.804 132.982 31.804C133.721 31.804 134.485 31.952 134.806 32.1985L135.348 32.5683V75.4175L134.806 75.7873C134.485 76.0338 133.721 76.1818 132.982 76.1818C131.873 76.1818 131.602 76.0831 131.183 75.5408Z" fill="url(#paint37_linear_2_324)"/>
<path d="M154.57 75.6887C154.078 75.1956 154.078 74.8751 154.078 53.9929C154.078 33.1107 154.078 32.7902 154.57 32.2971C154.94 31.9273 155.384 31.804 156.419 31.804C157.454 31.804 157.897 31.9273 158.267 32.2971C158.76 32.7902 158.76 33.1107 158.76 53.9929C158.76 74.8751 158.76 75.1956 158.267 75.6887C157.897 76.0585 157.454 76.1818 156.419 76.1818C155.384 76.1818 154.94 76.0585 154.57 75.6887Z" fill="url(#paint38_linear_2_324)"/>
<path d="M177.095 75.664C176.652 75.171 176.627 74.456 176.627 53.9929C176.627 33.5298 176.652 32.8149 177.095 32.3218C177.687 31.6808 179.806 31.6068 180.644 32.1985L181.186 32.5683V75.4175L180.644 75.7873C179.806 76.379 177.687 76.305 177.095 75.664Z" fill="url(#paint39_linear_2_324)"/>
<path d="M245.557 75.6147L245.015 75.0477V32.8642L245.582 32.3464C246.37 31.6068 248.49 31.5821 249.204 32.2971C249.697 32.7902 249.697 33.1107 249.697 53.9929C249.697 74.8751 249.697 75.1956 249.204 75.6887C248.465 76.4283 246.272 76.379 245.557 75.6147Z" fill="url(#paint40_linear_2_324)"/>
<path d="M268.23 75.7873L267.687 75.4175V32.5683L268.23 32.1985C268.55 31.952 269.289 31.804 270.053 31.804C272.32 31.804 272.123 29.807 272.123 54.0422C272.123 74.382 272.099 75.3928 271.68 75.7626C271.088 76.305 268.969 76.3297 268.23 75.7873Z" fill="url(#paint41_linear_2_324)"/>
<path d="M291.37 75.5408C290.853 74.8751 290.853 74.7518 290.853 53.9929C290.853 33.234 290.853 33.1107 291.37 32.4451C291.814 31.9027 292.06 31.804 293.219 31.804C294.229 31.804 294.673 31.9273 295.042 32.2971C295.535 32.7902 295.535 33.1107 295.535 53.9929C295.535 74.8751 295.535 75.1956 295.042 75.6887C294.673 76.0585 294.229 76.1818 293.219 76.1818C292.06 76.1818 291.814 76.0831 291.37 75.5408Z" fill="url(#paint42_linear_2_324)"/>
<path d="M314.068 75.7873L313.526 75.4175V54.0175C313.526 29.5851 313.304 31.804 315.793 31.804C318.307 31.804 318.085 29.7084 318.085 53.9929C318.085 74.4559 318.06 75.1709 317.617 75.664C317.025 76.305 314.906 76.379 314.068 75.7873Z" fill="url(#paint43_linear_2_324)"/>
<path d="M382.308 75.5408C381.79 74.8751 381.79 74.7518 381.79 53.9929C381.79 33.234 381.79 33.1107 382.308 32.4451C382.727 31.9027 382.998 31.804 384.107 31.804C384.846 31.804 385.61 31.952 385.93 32.1985L386.472 32.5683V75.4175L385.93 75.7873C385.61 76.0338 384.846 76.1818 384.107 76.1818C382.998 76.1818 382.727 76.0831 382.308 75.5408Z" fill="url(#paint44_linear_2_324)"/>
<path d="M404.956 75.6887C404.463 75.1956 404.463 74.8751 404.463 53.9929C404.463 33.1107 404.463 32.7902 404.956 32.2971C405.325 31.9273 405.769 31.804 406.779 31.804C407.938 31.804 408.184 31.9027 408.628 32.4451C409.145 33.1107 409.145 33.234 409.145 53.9929C409.145 74.7518 409.145 74.8751 408.628 75.5408C408.184 76.0831 407.938 76.1818 406.779 76.1818C405.769 76.1818 405.325 76.0585 404.956 75.6887Z" fill="url(#paint45_linear_2_324)"/>
<path d="M428.22 75.664C427.776 75.171 427.751 74.456 427.751 53.9929C427.751 33.5298 427.776 32.8149 428.22 32.3218C428.811 31.6808 430.931 31.6068 431.768 32.1985L432.311 32.5683V75.4175L431.768 75.7873C430.931 76.379 428.811 76.305 428.22 75.664Z" fill="url(#paint46_linear_2_324)"/>
<path d="M450.794 75.6887C450.301 75.1956 450.301 74.8751 450.301 53.9929C450.301 33.1107 450.301 32.7902 450.794 32.2971C451.163 31.9273 451.607 31.804 452.617 31.804C453.776 31.804 454.022 31.9027 454.466 32.4451C454.983 33.1107 454.983 33.234 454.983 53.9929C454.983 74.7518 454.983 74.8751 454.466 75.5408C454.022 76.0831 453.776 76.1818 452.617 76.1818C451.607 76.1818 451.163 76.0585 450.794 75.6887Z" fill="url(#paint47_linear_2_324)"/>
<path d="M-49.0646 70.8071C-49.4589 70.388 -49.4835 68.8594 -49.4835 53.9436C-49.4835 35.1077 -49.7053 36.7349 -47.0684 36.7349C-44.6286 36.7349 -44.8011 35.3296 -44.8011 53.9929C-44.8011 72.6809 -44.604 71.2509 -47.1177 71.2509C-48.3006 71.2509 -48.7688 71.1523 -49.0646 70.8071Z" fill="url(#paint48_linear_2_324)"/>
<path d="M64.2741 70.7085C63.9291 70.2154 63.8798 68.2184 63.8798 53.9929C63.8798 39.7674 63.9291 37.7704 64.2741 37.2773C64.5945 36.8089 64.8656 36.7349 66.221 36.7349C67.5764 36.7349 67.8475 36.8089 68.1679 37.2773C68.5129 37.7704 68.5622 39.7674 68.5622 53.9929C68.5622 68.2184 68.5129 70.2154 68.1679 70.7085C67.8475 71.1769 67.5764 71.2509 66.221 71.2509C64.8656 71.2509 64.5945 71.1769 64.2741 70.7085Z" fill="url(#paint49_linear_2_324)"/>
<path d="M86.2321 70.8071C85.8378 70.388 85.8132 68.8594 85.8132 53.9436C85.8132 35.1817 85.616 36.7349 88.1051 36.7349C90.4463 36.7349 90.2491 35.231 90.2491 53.9929C90.2491 68.6375 90.1998 70.5113 89.8548 70.8564C89.288 71.4481 86.7496 71.3988 86.2321 70.8071Z" fill="url(#paint50_linear_2_324)"/>
<path d="M199.595 70.8071C199.201 70.388 199.176 68.8594 199.176 53.9436C199.176 35.1077 198.955 36.7349 201.592 36.7349C204.031 36.7349 203.859 35.3296 203.859 53.9929C203.859 72.6809 204.056 71.2509 201.542 71.2509C200.359 71.2509 199.891 71.1523 199.595 70.8071Z" fill="url(#paint51_linear_2_324)"/>
<path d="M223.007 70.8071C222.613 70.388 222.588 68.8594 222.588 53.9436C222.588 35.1077 222.367 36.7349 225.004 36.7349C227.443 36.7349 227.271 35.3296 227.271 53.9929C227.271 72.6809 227.468 71.2509 224.954 71.2509C223.771 71.2509 223.303 71.1523 223.007 70.8071Z" fill="url(#paint52_linear_2_324)"/>
<path d="M336.346 70.7085C336.001 70.2154 335.952 68.2184 335.952 53.9929C335.952 39.7674 336.001 37.7704 336.346 37.2773C336.667 36.8089 336.938 36.7349 338.293 36.7349C339.648 36.7349 339.92 36.8089 340.24 37.2773C340.585 37.7704 340.634 39.7674 340.634 53.9929C340.634 68.2184 340.585 70.2154 340.24 70.7085C339.92 71.1769 339.648 71.2509 338.293 71.2509C336.938 71.2509 336.667 71.1769 336.346 70.7085Z" fill="url(#paint53_linear_2_324)"/>
<path d="M359.758 70.7085C359.413 70.2154 359.364 68.2184 359.364 53.9929C359.364 39.7674 359.413 37.7704 359.758 37.2773C360.079 36.8089 360.35 36.7349 361.705 36.7349C363.06 36.7349 363.332 36.8089 363.652 37.2773C363.997 37.7704 364.046 39.7674 364.046 53.9929C364.046 68.2184 363.997 70.2154 363.652 70.7085C363.332 71.1769 363.06 71.2509 361.705 71.2509C360.35 71.2509 360.079 71.1769 359.758 70.7085Z" fill="url(#paint54_linear_2_324)"/>
<path d="M473.121 70.7085C472.776 70.2154 472.727 68.2184 472.727 53.9929C472.727 35.305 472.53 36.7349 475.044 36.7349C477.631 36.7349 477.41 35.157 477.41 54.0422C477.41 72.8781 477.631 71.2509 474.994 71.2509C473.713 71.2509 473.442 71.1769 473.121 70.7085Z" fill="url(#paint55_linear_2_324)"/>
<path d="M-18.8754 68.1445L-19.4176 67.7746V40.2111L-18.8754 39.8413C-18.555 39.5948 -17.7911 39.4469 -17.0517 39.4469C-15.9428 39.4469 -15.6717 39.5455 -15.2527 40.0879C-14.7352 40.7289 -14.7352 40.9754 -14.7352 53.9929C-14.7352 67.0104 -14.7352 67.2569 -15.2527 67.8979C-15.6717 68.4403 -15.9428 68.5389 -17.0517 68.5389C-17.7911 68.5389 -18.555 68.391 -18.8754 68.1445Z" fill="url(#paint56_linear_2_324)"/>
<path d="M34.3314 67.8979C33.8139 67.2569 33.8139 67.0104 33.8139 53.9929C33.8139 40.9754 33.8139 40.7289 34.3314 40.0879C34.775 39.5455 35.0215 39.4469 36.1797 39.4469C37.1902 39.4469 37.6337 39.5701 38.0034 39.9399C38.4963 40.433 38.4963 40.7535 38.4963 53.9929C38.4963 67.2323 38.4963 67.5528 38.0034 68.0458C37.6337 68.4157 37.1902 68.5389 36.1797 68.5389C35.0215 68.5389 34.775 68.4403 34.3314 67.8979Z" fill="url(#paint57_linear_2_324)"/>
<path d="M116.298 68.0951C115.928 67.676 115.879 66.3447 115.879 53.9436C115.879 41.0001 115.904 40.2358 116.323 39.866C116.914 39.3236 119.034 39.2989 119.773 39.8413L120.315 40.2111V67.7746L119.773 68.1445C118.984 68.7115 116.816 68.6622 116.298 68.0951Z" fill="url(#paint58_linear_2_324)"/>
<path d="M169.603 68.0458C169.111 67.5528 169.111 67.2323 169.111 53.9929C169.111 40.7535 169.111 40.433 169.603 39.9399C169.973 39.5701 170.417 39.4469 171.452 39.4469C172.487 39.4469 172.93 39.5701 173.3 39.9399C173.793 40.433 173.793 40.7535 173.793 53.9929C173.793 67.2323 173.793 67.5528 173.3 68.0458C172.93 68.4157 172.487 68.5389 171.452 68.5389C170.417 68.5389 169.973 68.4157 169.603 68.0458Z" fill="url(#paint59_linear_2_324)"/>
<path d="M253.197 68.1445L252.654 67.7746V40.2111L253.197 39.8413C253.517 39.5948 254.281 39.4469 255.02 39.4469C256.129 39.4469 256.4 39.5455 256.819 40.0879C257.337 40.7289 257.337 40.9754 257.337 53.9929C257.337 67.0104 257.337 67.2569 256.819 67.8979C256.4 68.4403 256.129 68.5389 255.02 68.5389C254.281 68.5389 253.517 68.391 253.197 68.1445Z" fill="url(#paint60_linear_2_324)"/>
<path d="M306.724 68.3417C305.935 67.824 305.886 67.0597 305.886 53.9929C305.886 40.9261 305.935 40.1618 306.724 39.6441C306.872 39.5455 307.586 39.4469 308.301 39.4469C309.262 39.4469 309.706 39.5701 310.075 39.9399C310.568 40.433 310.568 40.7535 310.568 53.9929C310.568 67.2323 310.568 67.5528 310.075 68.0458C309.706 68.4157 309.262 68.5389 308.301 68.5389C307.586 68.5389 306.872 68.4403 306.724 68.3417Z" fill="url(#paint61_linear_2_324)"/>
<path d="M389.923 68.0458C389.43 67.5528 389.43 67.2323 389.43 53.9929C389.43 40.7535 389.43 40.433 389.923 39.9399C390.292 39.5701 390.736 39.4469 391.746 39.4469C392.905 39.4469 393.151 39.5455 393.595 40.0879C394.112 40.7289 394.112 40.9754 394.112 53.9929C394.112 67.0104 394.112 67.2569 393.595 67.8979C393.151 68.4403 392.905 68.5389 391.746 68.5389C390.736 68.5389 390.292 68.4157 389.923 68.0458Z" fill="url(#paint62_linear_2_324)"/>
<path d="M443.179 67.8979C442.661 67.2569 442.661 67.0104 442.661 53.9929C442.661 40.9754 442.661 40.7289 443.179 40.0879C443.598 39.5455 443.869 39.4469 444.978 39.4469C445.717 39.4469 446.481 39.5948 446.801 39.8413L447.344 40.2111V67.7746L446.801 68.1445C446.481 68.391 445.717 68.5389 444.978 68.5389C443.869 68.5389 443.598 68.4403 443.179 67.8979Z" fill="url(#paint63_linear_2_324)"/>
<path d="M-56.4085 60.9207L-57 60.4523V47.5335L-56.4085 47.065C-55.5953 46.3994 -53.5991 46.424 -52.9337 47.0897C-52.4655 47.5581 -52.4408 47.9033 -52.4408 53.9929C-52.4408 60.0825 -52.4655 60.4277 -52.9337 60.8961C-53.5991 61.5618 -55.5953 61.5864 -56.4085 60.9207Z" fill="url(#paint64_linear_2_324)"/>
<path d="M72.0617 60.9947C71.5195 60.6249 71.5195 60.5756 71.5195 53.9929C71.5195 47.4102 71.5195 47.3609 72.0617 46.9911C72.3574 46.7692 73.1214 46.5966 73.7375 46.5966C74.3536 46.5966 75.1176 46.7692 75.4133 46.9911C75.9555 47.3609 75.9555 47.4102 75.9555 53.9929C75.9555 60.5756 75.9555 60.6249 75.4133 60.9947C75.1176 61.2166 74.3536 61.3892 73.7375 61.3892C73.1214 61.3892 72.3574 61.2166 72.0617 60.9947Z" fill="url(#paint65_linear_2_324)"/>
<path d="M78.7896 60.7729L78.1735 60.1812V47.8047L78.7896 47.213C79.6768 46.3008 81.9933 46.4241 82.6587 47.4349C82.7573 47.5828 82.8559 50.5413 82.8559 53.9929C82.8559 57.4445 82.7573 60.403 82.6587 60.551C81.9933 61.5618 79.6768 61.6851 78.7896 60.7729Z" fill="url(#paint66_linear_2_324)"/>
<path d="M207.186 60.7728L206.57 60.1811V47.8047L207.186 47.213C207.974 46.3994 209.995 46.3254 210.759 47.0897C211.228 47.5581 211.252 47.9033 211.252 53.9929C211.252 60.0825 211.228 60.4277 210.759 60.8961C209.995 61.6604 207.974 61.5864 207.186 60.7728Z" fill="url(#paint67_linear_2_324)"/>
<path d="M215.565 60.7728L214.949 60.1811V47.8047L215.565 47.213C216.353 46.3994 218.374 46.3254 219.138 47.0897C219.607 47.5581 219.631 47.9033 219.631 53.9929C219.631 60.0825 219.607 60.4277 219.138 60.8961C218.374 61.6604 216.353 61.5864 215.565 60.7728Z" fill="url(#paint68_linear_2_324)"/>
<path d="M344.134 60.9947C343.592 60.6249 343.592 60.5756 343.592 53.9929C343.592 47.4102 343.592 47.3609 344.134 46.9911C344.429 46.7692 345.193 46.5966 345.809 46.5966C346.426 46.5966 347.19 46.7692 347.485 46.9911C348.027 47.3609 348.027 47.4102 348.027 53.9929C348.027 60.5756 348.027 60.6249 347.485 60.9947C347.19 61.2166 346.426 61.3892 345.809 61.3892C345.193 61.3892 344.429 61.2166 344.134 60.9947Z" fill="url(#paint69_linear_2_324)"/>
<path d="M352.513 60.9947C351.971 60.6249 351.971 60.5756 351.971 53.9929C351.971 47.4102 351.971 47.3609 352.513 46.9911C352.808 46.7692 353.572 46.5966 354.189 46.5966C354.805 46.5966 355.569 46.7692 355.864 46.9911C356.407 47.3609 356.406 47.4102 356.406 53.9929C356.406 60.5756 356.407 60.6249 355.864 60.9947C355.569 61.2166 354.805 61.3892 354.189 61.3892C353.572 61.3892 352.808 61.2166 352.513 60.9947Z" fill="url(#paint70_linear_2_324)"/>
<path d="M480.86 60.8961C480.391 60.4277 480.367 60.0825 480.367 53.9929C480.367 47.9033 480.391 47.5581 480.86 47.0897C481.525 46.424 483.521 46.3994 484.335 47.065L484.926 47.5335V60.4523L484.335 60.9207C483.521 61.5864 481.525 61.5618 480.86 60.8961Z" fill="url(#paint71_linear_2_324)"/>
<circle cx="66.5746" cy="55.3511" r="5.14894" fill="black"/>
<circle cx="151.532" cy="36.0426" r="5.14894" fill="black"/>
<circle cx="245.5" cy="72.0852" r="5.14894" fill="black"/>
<circle cx="268.671" cy="33.4681" r="5.14894" fill="black"/>
<circle cx="361.352" cy="61.7873" r="5.14894" fill="black"/>
<line x1="-16.7795" y1="27.3705" x2="68.1781" y2="55.6897" stroke="black" stroke-width="2"/>
<line x1="66.353" y1="55.6632" x2="151.311" y2="36.3547" stroke="black" stroke-width="2"/>
<line x1="151.895" y1="36.3978" x2="244.576" y2="72.4404" stroke="black" stroke-width="2"/>
<line x1="268.255" y1="32.6711" x2="245.085" y2="73.8627" stroke="black" stroke-width="2"/>
<line x1="359.772" y1="61.4564" x2="267.091" y2="33.1372" stroke="black" stroke-width="2"/>
<line x1="361.06" y1="62.118" x2="437.007" y2="38.9478" stroke="black" stroke-width="2"/>
<defs>
<linearGradient id="paint0_linear_2_324" x1="482.646" y1="51.7133" x2="-57" y2="54.0639" gradientUnits="userSpaceOnUse">
<stop/>
<stop offset="1" stop-color="#999999"/>
</linearGradient>
<linearGradient id="paint1_linear_2_324" x1="482.646" y1="51.7133" x2="-57" y2="54.0639" gradientUnits="userSpaceOnUse">
<stop/>
<stop offset="1" stop-color="#999999"/>
</linearGradient>
<linearGradient id="paint2_linear_2_324" x1="482.646" y1="51.7133" x2="-57" y2="54.0639" gradientUnits="userSpaceOnUse">
<stop/>
<stop offset="1" stop-color="#999999"/>
</linearGradient>
<linearGradient id="paint3_linear_2_324" x1="482.646" y1="51.7133" x2="-57" y2="54.0639" gradientUnits="userSpaceOnUse">
<stop/>
<stop offset="1" stop-color="#999999"/>
</linearGradient>
<linearGradient id="paint4_linear_2_324" x1="482.646" y1="51.7133" x2="-57" y2="54.0639" gradientUnits="userSpaceOnUse">
<stop/>
<stop offset="1" stop-color="#999999"/>
</linearGradient>
<linearGradient id="paint5_linear_2_324" x1="482.646" y1="51.7133" x2="-57" y2="54.0639" gradientUnits="userSpaceOnUse">
<stop/>
<stop offset="1" stop-color="#999999"/>
</linearGradient>
<linearGradient id="paint6_linear_2_324" x1="482.646" y1="51.7133" x2="-57" y2="54.0639" gradientUnits="userSpaceOnUse">
<stop/>
<stop offset="1" stop-color="#999999"/>
</linearGradient>
<linearGradient id="paint7_linear_2_324" x1="482.646" y1="51.7133" x2="-57" y2="54.0639" gradientUnits="userSpaceOnUse">
<stop/>
<stop offset="1" stop-color="#999999"/>
</linearGradient>
<linearGradient id="paint8_linear_2_324" x1="482.646" y1="51.7133" x2="-57" y2="54.0639" gradientUnits="userSpaceOnUse">
<stop/>
<stop offset="1" stop-color="#999999"/>
</linearGradient>
<linearGradient id="paint9_linear_2_324" x1="482.646" y1="51.7133" x2="-57" y2="54.0639" gradientUnits="userSpaceOnUse">
<stop/>
<stop offset="1" stop-color="#999999"/>
</linearGradient>
<linearGradient id="paint10_linear_2_324" x1="482.646" y1="51.7133" x2="-57" y2="54.0639" gradientUnits="userSpaceOnUse">
<stop/>
<stop offset="1" stop-color="#999999"/>
</linearGradient>
<linearGradient id="paint11_linear_2_324" x1="482.646" y1="51.7133" x2="-57" y2="54.0639" gradientUnits="userSpaceOnUse">
<stop/>
<stop offset="1" stop-color="#999999"/>
</linearGradient>
<linearGradient id="paint12_linear_2_324" x1="482.646" y1="51.7133" x2="-57" y2="54.0639" gradientUnits="userSpaceOnUse">
<stop/>
<stop offset="1" stop-color="#999999"/>
</linearGradient>
<linearGradient id="paint13_linear_2_324" x1="482.646" y1="51.7133" x2="-57" y2="54.0639" gradientUnits="userSpaceOnUse">
<stop/>
<stop offset="1" stop-color="#999999"/>
</linearGradient>
<linearGradient id="paint14_linear_2_324" x1="482.646" y1="51.7133" x2="-57" y2="54.0639" gradientUnits="userSpaceOnUse">
<stop/>
<stop offset="1" stop-color="#999999"/>
</linearGradient>
<linearGradient id="paint15_linear_2_324" x1="482.646" y1="51.7133" x2="-57" y2="54.0639" gradientUnits="userSpaceOnUse">
<stop/>
<stop offset="1" stop-color="#999999"/>
</linearGradient>
<linearGradient id="paint16_linear_2_324" x1="482.646" y1="51.7133" x2="-57" y2="54.0639" gradientUnits="userSpaceOnUse">
<stop/>
<stop offset="1" stop-color="#999999"/>
</linearGradient>
<linearGradient id="paint17_linear_2_324" x1="482.646" y1="51.7133" x2="-57" y2="54.0639" gradientUnits="userSpaceOnUse">
<stop/>
<stop offset="1" stop-color="#999999"/>
</linearGradient>
<linearGradient id="paint18_linear_2_324" x1="482.646" y1="51.7133" x2="-57" y2="54.0639" gradientUnits="userSpaceOnUse">
<stop/>
<stop offset="1" stop-color="#999999"/>
</linearGradient>
<linearGradient id="paint19_linear_2_324" x1="482.646" y1="51.7133" x2="-57" y2="54.0639" gradientUnits="userSpaceOnUse">
<stop/>
<stop offset="1" stop-color="#999999"/>
</linearGradient>
<linearGradient id="paint20_linear_2_324" x1="482.646" y1="51.7133" x2="-57" y2="54.0639" gradientUnits="userSpaceOnUse">
<stop/>
<stop offset="1" stop-color="#999999"/>
</linearGradient>
<linearGradient id="paint21_linear_2_324" x1="482.646" y1="51.7133" x2="-57" y2="54.0639" gradientUnits="userSpaceOnUse">
<stop/>
<stop offset="1" stop-color="#999999"/>
</linearGradient>
<linearGradient id="paint22_linear_2_324" x1="482.646" y1="51.7133" x2="-57" y2="54.0639" gradientUnits="userSpaceOnUse">
<stop/>
<stop offset="1" stop-color="#999999"/>
</linearGradient>
<linearGradient id="paint23_linear_2_324" x1="482.646" y1="51.7133" x2="-57" y2="54.0639" gradientUnits="userSpaceOnUse">
<stop/>
<stop offset="1" stop-color="#999999"/>
</linearGradient>
<linearGradient id="paint24_linear_2_324" x1="482.646" y1="51.7133" x2="-57" y2="54.0639" gradientUnits="userSpaceOnUse">
<stop/>
<stop offset="1" stop-color="#999999"/>
</linearGradient>
<linearGradient id="paint25_linear_2_324" x1="482.646" y1="51.7133" x2="-57" y2="54.0639" gradientUnits="userSpaceOnUse">
<stop/>
<stop offset="1" stop-color="#999999"/>
</linearGradient>
<linearGradient id="paint26_linear_2_324" x1="482.646" y1="51.7133" x2="-57" y2="54.0639" gradientUnits="userSpaceOnUse">
<stop/>
<stop offset="1" stop-color="#999999"/>
</linearGradient>
<linearGradient id="paint27_linear_2_324" x1="482.646" y1="51.7133" x2="-57" y2="54.0639" gradientUnits="userSpaceOnUse">
<stop/>
<stop offset="1" stop-color="#999999"/>
</linearGradient>
<linearGradient id="paint28_linear_2_324" x1="482.646" y1="51.7133" x2="-57" y2="54.0639" gradientUnits="userSpaceOnUse">
<stop/>
<stop offset="1" stop-color="#999999"/>
</linearGradient>
<linearGradient id="paint29_linear_2_324" x1="482.646" y1="51.7133" x2="-57" y2="54.0639" gradientUnits="userSpaceOnUse">
<stop/>
<stop offset="1" stop-color="#999999"/>
</linearGradient>
<linearGradient id="paint30_linear_2_324" x1="482.646" y1="51.7133" x2="-57" y2="54.0639" gradientUnits="userSpaceOnUse">
<stop/>
<stop offset="1" stop-color="#999999"/>
</linearGradient>
<linearGradient id="paint31_linear_2_324" x1="482.646" y1="51.7133" x2="-57" y2="54.0639" gradientUnits="userSpaceOnUse">
<stop/>
<stop offset="1" stop-color="#999999"/>
</linearGradient>
<linearGradient id="paint32_linear_2_324" x1="482.646" y1="51.7133" x2="-57" y2="54.0639" gradientUnits="userSpaceOnUse">
<stop/>
<stop offset="1" stop-color="#999999"/>
</linearGradient>
<linearGradient id="paint33_linear_2_324" x1="482.646" y1="51.7133" x2="-57" y2="54.0639" gradientUnits="userSpaceOnUse">
<stop/>
<stop offset="1" stop-color="#999999"/>
</linearGradient>
<linearGradient id="paint34_linear_2_324" x1="482.646" y1="51.7133" x2="-57" y2="54.0639" gradientUnits="userSpaceOnUse">
<stop/>
<stop offset="1" stop-color="#999999"/>
</linearGradient>
<linearGradient id="paint35_linear_2_324" x1="482.646" y1="51.7133" x2="-57" y2="54.0639" gradientUnits="userSpaceOnUse">
<stop/>
<stop offset="1" stop-color="#999999"/>
</linearGradient>
<linearGradient id="paint36_linear_2_324" x1="482.646" y1="51.7133" x2="-57" y2="54.0639" gradientUnits="userSpaceOnUse">
<stop/>
<stop offset="1" stop-color="#999999"/>
</linearGradient>
<linearGradient id="paint37_linear_2_324" x1="482.646" y1="51.7133" x2="-57" y2="54.0639" gradientUnits="userSpaceOnUse">
<stop/>
<stop offset="1" stop-color="#999999"/>
</linearGradient>
<linearGradient id="paint38_linear_2_324" x1="482.646" y1="51.7133" x2="-57" y2="54.0639" gradientUnits="userSpaceOnUse">
<stop/>
<stop offset="1" stop-color="#999999"/>
</linearGradient>
<linearGradient id="paint39_linear_2_324" x1="482.646" y1="51.7133" x2="-57" y2="54.0639" gradientUnits="userSpaceOnUse">
<stop/>
<stop offset="1" stop-color="#999999"/>
</linearGradient>
<linearGradient id="paint40_linear_2_324" x1="482.646" y1="51.7133" x2="-57" y2="54.0639" gradientUnits="userSpaceOnUse">
<stop/>
<stop offset="1" stop-color="#999999"/>
</linearGradient>
<linearGradient id="paint41_linear_2_324" x1="482.646" y1="51.7133" x2="-57" y2="54.0639" gradientUnits="userSpaceOnUse">
<stop/>
<stop offset="1" stop-color="#999999"/>
</linearGradient>
<linearGradient id="paint42_linear_2_324" x1="482.646" y1="51.7133" x2="-57" y2="54.0639" gradientUnits="userSpaceOnUse">
<stop/>
<stop offset="1" stop-color="#999999"/>
</linearGradient>
<linearGradient id="paint43_linear_2_324" x1="482.646" y1="51.7133" x2="-57" y2="54.0639" gradientUnits="userSpaceOnUse">
<stop/>
<stop offset="1" stop-color="#999999"/>
</linearGradient>
<linearGradient id="paint44_linear_2_324" x1="482.646" y1="51.7133" x2="-57" y2="54.0639" gradientUnits="userSpaceOnUse">
<stop/>
<stop offset="1" stop-color="#999999"/>
</linearGradient>
<linearGradient id="paint45_linear_2_324" x1="482.646" y1="51.7133" x2="-57" y2="54.0639" gradientUnits="userSpaceOnUse">
<stop/>
<stop offset="1" stop-color="#999999"/>
</linearGradient>
<linearGradient id="paint46_linear_2_324" x1="482.646" y1="51.7133" x2="-57" y2="54.0639" gradientUnits="userSpaceOnUse">
<stop/>
<stop offset="1" stop-color="#999999"/>
</linearGradient>
<linearGradient id="paint47_linear_2_324" x1="482.646" y1="51.7133" x2="-57" y2="54.0639" gradientUnits="userSpaceOnUse">
<stop/>
<stop offset="1" stop-color="#999999"/>
</linearGradient>
<linearGradient id="paint48_linear_2_324" x1="482.646" y1="51.7133" x2="-57" y2="54.0639" gradientUnits="userSpaceOnUse">
<stop/>
<stop offset="1" stop-color="#999999"/>
</linearGradient>
<linearGradient id="paint49_linear_2_324" x1="482.646" y1="51.7133" x2="-57" y2="54.0639" gradientUnits="userSpaceOnUse">
<stop/>
<stop offset="1" stop-color="#999999"/>
</linearGradient>
<linearGradient id="paint50_linear_2_324" x1="482.646" y1="51.7133" x2="-57" y2="54.0639" gradientUnits="userSpaceOnUse">
<stop/>
<stop offset="1" stop-color="#999999"/>
</linearGradient>
<linearGradient id="paint51_linear_2_324" x1="482.646" y1="51.7133" x2="-57" y2="54.0639" gradientUnits="userSpaceOnUse">
<stop/>
<stop offset="1" stop-color="#999999"/>
</linearGradient>
<linearGradient id="paint52_linear_2_324" x1="482.646" y1="51.7133" x2="-57" y2="54.0639" gradientUnits="userSpaceOnUse">
<stop/>
<stop offset="1" stop-color="#999999"/>
</linearGradient>
<linearGradient id="paint53_linear_2_324" x1="482.646" y1="51.7133" x2="-57" y2="54.0639" gradientUnits="userSpaceOnUse">
<stop/>
<stop offset="1" stop-color="#999999"/>
</linearGradient>
<linearGradient id="paint54_linear_2_324" x1="482.646" y1="51.7133" x2="-57" y2="54.0639" gradientUnits="userSpaceOnUse">
<stop/>
<stop offset="1" stop-color="#999999"/>
</linearGradient>
<linearGradient id="paint55_linear_2_324" x1="482.646" y1="51.7133" x2="-57" y2="54.0639" gradientUnits="userSpaceOnUse">
<stop/>
<stop offset="1" stop-color="#999999"/>
</linearGradient>
<linearGradient id="paint56_linear_2_324" x1="482.646" y1="51.7133" x2="-57" y2="54.0639" gradientUnits="userSpaceOnUse">
<stop/>
<stop offset="1" stop-color="#999999"/>
</linearGradient>
<linearGradient id="paint57_linear_2_324" x1="482.646" y1="51.7133" x2="-57" y2="54.0639" gradientUnits="userSpaceOnUse">
<stop/>
<stop offset="1" stop-color="#999999"/>
</linearGradient>
<linearGradient id="paint58_linear_2_324" x1="482.646" y1="51.7133" x2="-57" y2="54.0639" gradientUnits="userSpaceOnUse">
<stop/>
<stop offset="1" stop-color="#999999"/>
</linearGradient>
<linearGradient id="paint59_linear_2_324" x1="482.646" y1="51.7133" x2="-57" y2="54.0639" gradientUnits="userSpaceOnUse">
<stop/>
<stop offset="1" stop-color="#999999"/>
</linearGradient>
<linearGradient id="paint60_linear_2_324" x1="482.646" y1="51.7133" x2="-57" y2="54.0639" gradientUnits="userSpaceOnUse">
<stop/>
<stop offset="1" stop-color="#999999"/>
</linearGradient>
<linearGradient id="paint61_linear_2_324" x1="482.646" y1="51.7133" x2="-57" y2="54.0639" gradientUnits="userSpaceOnUse">
<stop/>
<stop offset="1" stop-color="#999999"/>
</linearGradient>
<linearGradient id="paint62_linear_2_324" x1="482.646" y1="51.7133" x2="-57" y2="54.0639" gradientUnits="userSpaceOnUse">
<stop/>
<stop offset="1" stop-color="#999999"/>
</linearGradient>
<linearGradient id="paint63_linear_2_324" x1="482.646" y1="51.7133" x2="-57" y2="54.0639" gradientUnits="userSpaceOnUse">
<stop/>
<stop offset="1" stop-color="#999999"/>
</linearGradient>
<linearGradient id="paint64_linear_2_324" x1="482.646" y1="51.7133" x2="-57" y2="54.0639" gradientUnits="userSpaceOnUse">
<stop/>
<stop offset="1" stop-color="#999999"/>
</linearGradient>
<linearGradient id="paint65_linear_2_324" x1="482.646" y1="51.7133" x2="-57" y2="54.0639" gradientUnits="userSpaceOnUse">
<stop/>
<stop offset="1" stop-color="#999999"/>
</linearGradient>
<linearGradient id="paint66_linear_2_324" x1="482.646" y1="51.7133" x2="-57" y2="54.0639" gradientUnits="userSpaceOnUse">
<stop/>
<stop offset="1" stop-color="#999999"/>
</linearGradient>
<linearGradient id="paint67_linear_2_324" x1="482.646" y1="51.7133" x2="-57" y2="54.0639" gradientUnits="userSpaceOnUse">
<stop/>
<stop offset="1" stop-color="#999999"/>
</linearGradient>
<linearGradient id="paint68_linear_2_324" x1="482.646" y1="51.7133" x2="-57" y2="54.0639" gradientUnits="userSpaceOnUse">
<stop/>
<stop offset="1" stop-color="#999999"/>
</linearGradient>
<linearGradient id="paint69_linear_2_324" x1="482.646" y1="51.7133" x2="-57" y2="54.0639" gradientUnits="userSpaceOnUse">
<stop/>
<stop offset="1" stop-color="#999999"/>
</linearGradient>
<linearGradient id="paint70_linear_2_324" x1="482.646" y1="51.7133" x2="-57" y2="54.0639" gradientUnits="userSpaceOnUse">
<stop/>
<stop offset="1" stop-color="#999999"/>
</linearGradient>
<linearGradient id="paint71_linear_2_324" x1="482.646" y1="51.7133" x2="-57" y2="54.0639" gradientUnits="userSpaceOnUse">
<stop/>
<stop offset="1" stop-color="#999999"/>
</linearGradient>
</defs>
</svg>
