<svg width="542" height="108" viewBox="0 0 542 108" fill="none" xmlns="http://www.w3.org/2000/svg">
<path d="M22.9684 107.542C22.5741 107.123 22.5495 103.055 22.5495 53.9436C22.5495 2.78593 22.5741 0.788937 22.993 0.419123C23.3381 0.0986172 23.9295 0 25.3342 0H27.2319L27.1826 53.6477C27.1086 106.433 27.1086 107.295 26.6404 107.641C25.9011 108.158 23.4613 108.109 22.9684 107.542Z" fill="url(#paint0_linear_2_324)"/>
<path d="M106.241 107.443C105.896 106.95 105.847 101.428 105.847 53.4505V0H107.769C109.346 0 109.79 0.0986171 110.11 0.443777C110.505 0.8629 110.529 4.93086 110.529 54.0422C110.529 105.2 110.505 107.197 110.086 107.567C109.765 107.863 109.174 107.986 108.114 107.986C106.833 107.986 106.562 107.912 106.241 107.443Z" fill="url(#paint1_linear_2_324)"/>
<path d="M158.24 107.591C157.895 107.246 157.846 102.044 157.846 53.9929C157.846 5.94168 157.895 0.739629 158.24 0.394469C158.512 0.0986172 159.128 0 160.458 0H162.282V53.5984C162.282 102.019 162.233 107.246 161.888 107.591C161.641 107.863 161.05 107.986 160.064 107.986C159.078 107.986 158.487 107.863 158.24 107.591Z" fill="url(#paint2_linear_2_324)"/>
<path d="M241.562 107.542C241.168 107.123 241.144 103.006 241.144 53.5491V0H243.09C244.84 0 245.111 0.0493086 245.432 0.542394C245.777 1.03548 245.826 6.50873 245.826 53.9929C245.826 101.477 245.777 106.95 245.432 107.443C245.111 107.912 244.84 107.986 243.509 107.986C242.326 107.986 241.858 107.887 241.562 107.542Z" fill="url(#paint3_linear_2_324)"/>
<path d="M295.04 107.542C294.646 107.123 294.621 103.055 294.621 53.9436C294.621 2.78593 294.646 0.788937 295.065 0.419123C295.41 0.0986172 296.002 0 297.406 0H299.304L299.255 53.6477C299.181 106.433 299.181 107.295 298.712 107.641C297.973 108.158 295.533 108.109 295.04 107.542Z" fill="url(#paint4_linear_2_324)"/>
<path d="M378.313 107.443C377.968 106.95 377.919 101.428 377.919 53.4505V0H379.866C381.616 0 381.887 0.0493086 382.207 0.542394C382.552 1.03548 382.601 6.50873 382.601 53.9929C382.601 101.477 382.552 106.95 382.207 107.443C381.887 107.912 381.616 107.986 380.26 107.986C378.905 107.986 378.634 107.912 378.313 107.443Z" fill="url(#paint5_linear_2_324)"/>
<path d="M431.816 107.542C431.421 107.123 431.397 103.055 431.397 53.9436C431.397 2.78594 431.421 0.788937 431.84 0.419123C432.185 0.0986172 432.777 0 434.182 0H436.079V53.4505C436.079 101.428 436.03 106.95 435.685 107.443C435.364 107.912 435.093 107.986 433.763 107.986C432.58 107.986 432.111 107.887 431.816 107.542Z" fill="url(#paint6_linear_2_324)"/>
<path d="M515.286 107.641C514.817 107.295 514.817 106.433 514.743 53.6477L514.694 0H516.616C518.194 0 518.637 0.0986171 518.958 0.443777C519.352 0.8629 519.377 4.93086 519.377 54.0422C519.377 105.2 519.352 107.197 518.933 107.567C518.342 108.084 515.976 108.134 515.286 107.641Z" fill="url(#paint7_linear_2_324)"/>
<path d="M60.1565 100.787C59.8115 100.294 59.7622 95.4368 59.7622 53.9929C59.7622 12.549 59.8115 7.69213 60.1565 7.19905C60.4769 6.73062 60.748 6.65665 62.0788 6.65665C63.2617 6.65665 63.7299 6.75527 64.0256 7.10043C64.4199 7.51955 64.4446 11.1437 64.4446 54.0422C64.4446 98.7404 64.42 100.54 64.001 100.91C63.6806 101.206 63.0892 101.329 62.0295 101.329C60.748 101.329 60.4769 101.255 60.1565 100.787Z" fill="url(#paint8_linear_2_324)"/>
<path d="M69.0284 100.959C68.6588 100.59 68.6341 96.5216 68.6341 53.9929C68.6341 11.4643 68.6588 7.39631 69.0284 7.02649C69.3241 6.73064 69.817 6.65668 71.0492 6.70599C72.5032 6.77995 72.725 6.85391 72.9961 7.39631C73.2426 7.88939 73.3165 17.4799 73.3165 53.9929C73.3165 90.5059 73.2426 100.096 72.9961 100.59C72.725 101.132 72.5032 101.206 71.0492 101.28C69.817 101.329 69.3241 101.255 69.0284 100.959Z" fill="url(#paint9_linear_2_324)"/>
<path d="M195.453 100.787C195.108 100.294 195.059 95.4368 195.059 53.9929C195.059 12.549 195.108 7.69213 195.453 7.19905C195.774 6.73062 196.045 6.65665 197.4 6.65665C198.756 6.65665 199.027 6.73062 199.347 7.19905C199.692 7.69213 199.741 12.549 199.741 53.9929C199.741 95.4368 199.692 100.294 199.347 100.787C199.027 101.255 198.756 101.329 197.4 101.329C196.045 101.329 195.774 101.255 195.453 100.787Z" fill="url(#paint10_linear_2_324)"/>
<path d="M204.153 100.91C203.66 100.343 203.512 8.35783 204.005 7.39631C204.276 6.85391 204.498 6.77995 205.952 6.70599C207.184 6.65668 207.677 6.73064 207.972 7.02649C208.342 7.39631 208.367 11.4643 208.367 53.9929C208.367 96.0038 208.317 100.59 207.972 100.935C207.43 101.502 204.621 101.477 204.153 100.91Z" fill="url(#paint11_linear_2_324)"/>
<path d="M332.229 100.787C331.883 100.294 331.834 95.4368 331.834 53.9929C331.834 12.549 331.883 7.69213 332.229 7.19905C332.549 6.73062 332.82 6.65665 334.151 6.65665C335.334 6.65665 335.802 6.75527 336.098 7.10043C336.492 7.51955 336.517 11.1437 336.517 54.0422C336.517 98.7404 336.492 100.54 336.073 100.91C335.753 101.206 335.161 101.329 334.101 101.329C332.82 101.329 332.549 101.255 332.229 100.787Z" fill="url(#paint12_linear_2_324)"/>
<path d="M341.1 100.935C340.755 100.59 340.706 96.0038 340.706 53.9929C340.706 11.982 340.755 7.39628 341.1 7.05112C341.371 6.77993 341.963 6.65665 343.047 6.65665C344.353 6.65665 344.674 6.73062 344.896 7.12509C345.068 7.44559 345.142 22.4847 345.142 53.9929C345.142 85.5011 345.068 100.54 344.896 100.861C344.674 101.255 344.353 101.329 343.047 101.329C341.963 101.329 341.371 101.206 341.1 100.935Z" fill="url(#paint13_linear_2_324)"/>
<path d="M469.078 100.91C468.585 100.343 468.437 8.35783 468.93 7.39631C469.201 6.85391 469.423 6.77995 470.877 6.70599C472.109 6.65668 472.602 6.73064 472.898 7.02649C473.267 7.39631 473.292 11.4643 473.292 53.9929C473.292 96.0038 473.243 100.59 472.898 100.935C472.355 101.502 469.546 101.477 469.078 100.91Z" fill="url(#paint14_linear_2_324)"/>
<path d="M477.9 100.885C477.506 100.466 477.481 97.2612 477.481 53.9436C477.481 9.24536 477.506 7.44559 477.925 7.07578C478.245 6.77993 478.837 6.65665 479.897 6.65665C481.178 6.65665 481.449 6.73062 481.77 7.19905C482.115 7.69213 482.164 12.5244 482.164 53.8696C482.164 90.4566 482.09 100.096 481.843 100.59C481.572 101.132 481.351 101.206 479.921 101.28C478.615 101.329 478.245 101.255 477.9 100.885Z" fill="url(#paint15_linear_2_324)"/>
<path d="M45.37 88.7061C44.7785 87.8679 44.7785 20.1179 45.37 19.2797C45.6904 18.8112 45.9614 18.7373 47.2922 18.7373C49.9292 18.7373 49.6581 14.7433 49.6581 54.0422C49.6581 93.3905 49.9292 89.2485 47.2429 89.2485C45.9614 89.2485 45.6904 89.1746 45.37 88.7061Z" fill="url(#paint16_linear_2_324)"/>
<path d="M83.8396 88.8047C83.4453 88.3856 83.4206 85.9202 83.4206 53.9436C83.4206 14.472 83.1249 18.6633 85.9097 18.7865C87.2898 18.8605 87.5116 18.9345 87.7827 19.4769C88.2509 20.3891 88.2509 87.5967 87.7827 88.5089C87.5116 89.0513 87.2898 89.1252 85.8604 89.1992C84.5543 89.2485 84.1846 89.1745 83.8396 88.8047Z" fill="url(#paint17_linear_2_324)"/>
<path d="M180.691 88.8048C180.297 88.3857 180.272 85.5997 180.272 53.9436C180.272 14.5954 180.001 18.7373 182.687 18.7373C183.969 18.7373 184.24 18.8112 184.56 19.2797C184.905 19.7728 184.955 23.4709 184.955 53.9929C184.955 84.5149 184.905 88.2131 184.56 88.7062C184.24 89.1746 183.969 89.2485 182.638 89.2485C181.455 89.2485 180.987 89.1499 180.691 88.8048Z" fill="url(#paint18_linear_2_324)"/>
<path d="M219.112 88.8541C218.767 88.5089 218.717 85.008 218.717 53.9929C218.717 14.8665 218.471 18.7373 220.935 18.7373C223.4 18.7373 223.153 14.8665 223.153 53.9929C223.153 93.1193 223.4 89.2485 220.935 89.2485C219.95 89.2485 219.358 89.1253 219.112 88.8541Z" fill="url(#paint19_linear_2_324)"/>
<path d="M317.442 88.7061C317.097 88.213 317.048 84.5149 317.048 53.9929C317.048 23.4709 317.097 19.7727 317.442 19.2797C317.762 18.8112 318.033 18.7373 319.364 18.7373C322.001 18.7373 321.73 14.7433 321.73 54.0422C321.73 93.3905 322.001 89.2485 319.315 89.2485C318.033 89.2485 317.762 89.1746 317.442 88.7061Z" fill="url(#paint20_linear_2_324)"/>
<path d="M355.912 88.8047C355.517 88.3856 355.493 85.9202 355.493 53.9436C355.493 14.472 355.197 18.6633 357.982 18.7865C359.362 18.8605 359.584 18.9345 359.855 19.4769C360.323 20.3891 360.323 87.5967 359.855 88.5089C359.584 89.0513 359.362 89.1252 357.932 89.1992C356.626 89.2485 356.257 89.1745 355.912 88.8047Z" fill="url(#paint21_linear_2_324)"/>
<path d="M454.291 88.8294C453.798 88.2624 453.651 20.4138 454.143 19.4769C454.415 18.9345 454.636 18.8605 456.016 18.7866C458.801 18.6633 458.505 14.4721 458.505 53.9929C458.505 87.0543 458.481 88.4596 458.062 88.8294C457.421 89.4211 454.76 89.4211 454.291 88.8294Z" fill="url(#paint22_linear_2_324)"/>
<path d="M492.687 88.8048C492.293 88.3857 492.268 85.5997 492.268 53.9436C492.268 14.5954 491.997 18.7373 494.683 18.7373C495.965 18.7373 496.236 18.8112 496.556 19.2797C496.901 19.7728 496.95 23.4709 496.95 53.9929C496.95 84.5149 496.901 88.2131 496.556 88.7062C496.236 89.1746 495.965 89.2485 494.634 89.2485C493.451 89.2485 492.983 89.1499 492.687 88.8048Z" fill="url(#paint23_linear_2_324)"/>
<path d="M15.5505 87.2022L14.9097 86.5612V21.4246L15.5505 20.7836C16.1173 20.2165 16.3145 20.1672 17.5467 20.2659C18.5078 20.3398 19.0253 20.5124 19.2471 20.8329C19.7647 21.5232 19.7647 86.4626 19.2471 87.1529C19.0253 87.4734 18.5078 87.646 17.5467 87.72C16.3145 87.8186 16.1173 87.7693 15.5505 87.2022Z" fill="url(#paint24_linear_2_324)"/>
<path d="M113.979 87.2762C113.487 86.7831 113.487 86.4626 113.487 53.9929C113.487 21.5232 113.487 21.2027 113.979 20.7096C114.645 20.0439 116.641 20.0193 117.454 20.6849L118.046 21.1534V86.8324L117.454 87.3008C116.641 87.9665 114.645 87.9418 113.979 87.2762Z" fill="url(#paint25_linear_2_324)"/>
<path d="M150.823 87.1529L150.206 86.5612V21.4246L150.823 20.8329C151.611 20.0193 153.287 19.97 154.248 20.7343L154.889 21.2273V86.7584L154.248 87.2515C153.287 88.0158 151.611 87.9665 150.823 87.1529Z" fill="url(#paint26_linear_2_324)"/>
<path d="M249.276 87.3255L248.66 86.8324V21.1534L249.276 20.6603C250.065 20.0193 252.357 20.1425 252.874 20.8329C253.392 21.5232 253.392 86.4626 252.874 87.1529C252.357 87.8432 250.065 87.9665 249.276 87.3255Z" fill="url(#paint27_linear_2_324)"/>
<path d="M287.622 87.2022L286.982 86.5612V21.4246L287.622 20.7836C288.189 20.2165 288.386 20.1672 289.619 20.2659C290.58 20.3398 291.097 20.5124 291.319 20.8329C291.837 21.5232 291.837 86.4626 291.319 87.1529C291.097 87.4734 290.58 87.646 289.619 87.72C288.386 87.8186 288.189 87.7693 287.622 87.2022Z" fill="url(#paint28_linear_2_324)"/>
<path d="M386.101 87.3748L385.559 87.005V20.9808L386.101 20.611C386.815 20.1179 388.738 20.1179 389.452 20.611L389.994 20.9808V87.005L389.452 87.3748C389.157 87.5967 388.393 87.7693 387.777 87.7693C387.16 87.7693 386.396 87.5967 386.101 87.3748Z" fill="url(#paint29_linear_2_324)"/>
<path d="M424.472 87.3008L423.88 86.8324V21.1534L424.472 20.6849C425.285 20.0193 427.281 20.0439 427.947 20.7096C428.439 21.2027 428.439 21.5232 428.439 53.9929C428.439 86.4626 428.439 86.7831 427.947 87.2762C427.281 87.9418 425.285 87.9665 424.472 87.3008Z" fill="url(#paint30_linear_2_324)"/>
<path d="M523.32 87.5967C522.309 87.2269 522.334 88.0405 522.334 53.9929C522.334 26.9225 522.383 21.2274 522.679 20.8329C522.901 20.5124 523.418 20.3398 524.379 20.2659C525.612 20.1672 525.809 20.2165 526.376 20.7836L527.016 21.4246V86.5612L526.4 87.1529C525.957 87.6214 525.562 87.7693 524.749 87.7446C524.158 87.7446 523.517 87.6707 523.32 87.5967Z" fill="url(#paint31_linear_2_324)"/>
<path d="M30.4602 75.5408C29.9427 74.8751 29.9427 74.7518 29.9427 53.9929C29.9427 33.234 29.9427 33.1107 30.4602 32.4451C30.9038 31.9027 31.1503 31.804 32.3086 31.804C33.319 31.804 33.7626 31.9273 34.1322 32.2971C34.6251 32.7902 34.6251 33.1107 34.6251 53.9929C34.6251 74.8751 34.6251 75.1956 34.1322 75.6887C33.7626 76.0585 33.319 76.1818 32.3086 76.1818C31.1503 76.1818 30.9038 76.0831 30.4602 75.5408Z" fill="url(#paint32_linear_2_324)"/>
<path d="M53.1576 75.7873L52.6154 75.4175V32.5683L53.1576 32.1985C53.9955 31.6068 56.1149 31.6808 56.7063 32.3218C57.1499 32.8149 57.1746 33.5298 57.1746 53.9929C57.1746 74.456 57.1499 75.171 56.7063 75.664C56.1149 76.305 53.9955 76.379 53.1576 75.7873Z" fill="url(#paint33_linear_2_324)"/>
<path d="M76.2985 75.5408C75.7809 74.8751 75.7809 74.7518 75.7809 53.9929C75.7809 33.234 75.7809 33.1107 76.2985 32.4451C76.742 31.9027 76.9885 31.804 78.1468 31.804C79.1572 31.804 79.6008 31.9273 79.9704 32.2971C80.4633 32.7902 80.4633 33.1107 80.4633 53.9929C80.4633 74.8751 80.4633 75.1956 79.9704 75.6887C79.6008 76.0585 79.1572 76.1818 78.1468 76.1818C76.9885 76.1818 76.742 76.0831 76.2985 75.5408Z" fill="url(#paint34_linear_2_324)"/>
<path d="M98.9958 75.7873L98.4536 75.4175V32.5683L98.9958 32.1985C99.3161 31.952 100.08 31.804 100.819 31.804C101.928 31.804 102.2 31.9027 102.618 32.4451C103.136 33.1107 103.136 33.234 103.136 53.9929C103.136 74.7518 103.136 74.8751 102.618 75.5408C102.2 76.0831 101.928 76.1818 100.819 76.1818C100.08 76.1818 99.3161 76.0338 98.9958 75.7873Z" fill="url(#paint35_linear_2_324)"/>
<path d="M165.732 75.6887C165.239 75.1956 165.239 74.8751 165.239 53.9929C165.239 33.1107 165.239 32.7902 165.732 32.2971C166.102 31.9273 166.546 31.804 167.581 31.804C168.616 31.804 169.059 31.9273 169.429 32.2971C169.922 32.7902 169.922 33.1107 169.922 53.9929C169.922 74.8751 169.922 75.1956 169.429 75.6887C169.059 76.0585 168.616 76.1818 167.581 76.1818C166.546 76.1818 166.102 76.0585 165.732 75.6887Z" fill="url(#paint36_linear_2_324)"/>
<path d="M188.183 75.5408C187.666 74.8751 187.666 74.7518 187.666 53.9929C187.666 33.234 187.666 33.1107 188.183 32.4451C188.602 31.9027 188.873 31.804 189.982 31.804C190.721 31.804 191.485 31.952 191.806 32.1985L192.348 32.5683V75.4175L191.806 75.7873C191.485 76.0338 190.721 76.1818 189.982 76.1818C188.873 76.1818 188.602 76.0831 188.183 75.5408Z" fill="url(#paint37_linear_2_324)"/>
<path d="M211.57 75.6887C211.078 75.1956 211.078 74.8751 211.078 53.9929C211.078 33.1107 211.078 32.7902 211.57 32.2971C211.94 31.9273 212.384 31.804 213.419 31.804C214.454 31.804 214.897 31.9273 215.267 32.2971C215.76 32.7902 215.76 33.1107 215.76 53.9929C215.76 74.8751 215.76 75.1956 215.267 75.6887C214.897 76.0585 214.454 76.1818 213.419 76.1818C212.384 76.1818 211.94 76.0585 211.57 75.6887Z" fill="url(#paint38_linear_2_324)"/>
<path d="M234.095 75.664C233.652 75.171 233.627 74.456 233.627 53.9929C233.627 33.5298 233.652 32.8149 234.095 32.3218C234.687 31.6808 236.806 31.6068 237.644 32.1985L238.186 32.5683V75.4175L237.644 75.7873C236.806 76.379 234.687 76.305 234.095 75.664Z" fill="url(#paint39_linear_2_324)"/>
<path d="M302.557 75.6147L302.015 75.0477V32.8642L302.582 32.3464C303.37 31.6068 305.49 31.5821 306.204 32.2971C306.697 32.7902 306.697 33.1107 306.697 53.9929C306.697 74.8751 306.697 75.1956 306.204 75.6887C305.465 76.4283 303.272 76.379 302.557 75.6147Z" fill="url(#paint40_linear_2_324)"/>
<path d="M325.23 75.7873L324.687 75.4175V32.5683L325.23 32.1985C325.55 31.952 326.289 31.804 327.053 31.804C329.32 31.804 329.123 29.807 329.123 54.0422C329.123 74.382 329.099 75.3928 328.68 75.7626C328.088 76.305 325.969 76.3297 325.23 75.7873Z" fill="url(#paint41_linear_2_324)"/>
<path d="M348.37 75.5408C347.853 74.8751 347.853 74.7518 347.853 53.9929C347.853 33.234 347.853 33.1107 348.37 32.4451C348.814 31.9027 349.06 31.804 350.219 31.804C351.229 31.804 351.673 31.9273 352.042 32.2971C352.535 32.7902 352.535 33.1107 352.535 53.9929C352.535 74.8751 352.535 75.1956 352.042 75.6887C351.673 76.0585 351.229 76.1818 350.219 76.1818C349.06 76.1818 348.814 76.0831 348.37 75.5408Z" fill="url(#paint42_linear_2_324)"/>
<path d="M371.068 75.7873L370.526 75.4175V54.0175C370.526 29.5851 370.304 31.804 372.793 31.804C375.307 31.804 375.085 29.7084 375.085 53.9929C375.085 74.4559 375.06 75.1709 374.617 75.664C374.025 76.305 371.906 76.379 371.068 75.7873Z" fill="url(#paint43_linear_2_324)"/>
<path d="M439.308 75.5408C438.79 74.8751 438.79 74.7518 438.79 53.9929C438.79 33.234 438.79 33.1107 439.308 32.4451C439.727 31.9027 439.998 31.804 441.107 31.804C441.846 31.804 442.61 31.952 442.93 32.1985L443.472 32.5683V75.4175L442.93 75.7873C442.61 76.0338 441.846 76.1818 441.107 76.1818C439.998 76.1818 439.727 76.0831 439.308 75.5408Z" fill="url(#paint44_linear_2_324)"/>
<path d="M461.956 75.6887C461.463 75.1956 461.463 74.8751 461.463 53.9929C461.463 33.1107 461.463 32.7902 461.956 32.2971C462.325 31.9273 462.769 31.804 463.779 31.804C464.938 31.804 465.184 31.9027 465.628 32.4451C466.145 33.1107 466.145 33.234 466.145 53.9929C466.145 74.7518 466.145 74.8751 465.628 75.5408C465.184 76.0831 464.938 76.1818 463.779 76.1818C462.769 76.1818 462.325 76.0585 461.956 75.6887Z" fill="url(#paint45_linear_2_324)"/>
<path d="M485.22 75.664C484.776 75.171 484.751 74.456 484.751 53.9929C484.751 33.5298 484.776 32.8149 485.22 32.3218C485.811 31.6808 487.931 31.6068 488.768 32.1985L489.311 32.5683V75.4175L488.768 75.7873C487.931 76.379 485.811 76.305 485.22 75.664Z" fill="url(#paint46_linear_2_324)"/>
<path d="M507.794 75.6887C507.301 75.1956 507.301 74.8751 507.301 53.9929C507.301 33.1107 507.301 32.7902 507.794 32.2971C508.163 31.9273 508.607 31.804 509.617 31.804C510.776 31.804 511.022 31.9027 511.466 32.4451C511.983 33.1107 511.983 33.234 511.983 53.9929C511.983 74.7518 511.983 74.8751 511.466 75.5408C511.022 76.0831 510.776 76.1818 509.617 76.1818C508.607 76.1818 508.163 76.0585 507.794 75.6887Z" fill="url(#paint47_linear_2_324)"/>
<path d="M7.93544 70.8071C7.54113 70.388 7.51649 68.8594 7.51649 53.9436C7.51649 35.1077 7.29469 36.7349 9.93162 36.7349C12.3714 36.7349 12.1989 35.3296 12.1989 53.9929C12.1989 72.6809 12.396 71.2509 9.88233 71.2509C8.69941 71.2509 8.23117 71.1523 7.93544 70.8071Z" fill="url(#paint48_linear_2_324)"/>
<path d="M121.274 70.7085C120.929 70.2154 120.88 68.2184 120.88 53.9929C120.88 39.7674 120.929 37.7704 121.274 37.2773C121.594 36.8089 121.866 36.7349 123.221 36.7349C124.576 36.7349 124.848 36.8089 125.168 37.2773C125.513 37.7704 125.562 39.7674 125.562 53.9929C125.562 68.2184 125.513 70.2154 125.168 70.7085C124.848 71.1769 124.576 71.2509 123.221 71.2509C121.866 71.2509 121.594 71.1769 121.274 70.7085Z" fill="url(#paint49_linear_2_324)"/>
<path d="M143.232 70.8071C142.838 70.388 142.813 68.8594 142.813 53.9436C142.813 35.1817 142.616 36.7349 145.105 36.7349C147.446 36.7349 147.249 35.231 147.249 53.9929C147.249 68.6375 147.2 70.5113 146.855 70.8564C146.288 71.4481 143.75 71.3988 143.232 70.8071Z" fill="url(#paint50_linear_2_324)"/>
<path d="M256.595 70.8071C256.201 70.388 256.176 68.8594 256.176 53.9436C256.176 35.1077 255.955 36.7349 258.592 36.7349C261.031 36.7349 260.859 35.3296 260.859 53.9929C260.859 72.6809 261.056 71.2509 258.542 71.2509C257.359 71.2509 256.891 71.1523 256.595 70.8071Z" fill="url(#paint51_linear_2_324)"/>
<path d="M280.007 70.8071C279.613 70.388 279.588 68.8594 279.588 53.9436C279.588 35.1077 279.367 36.7349 282.004 36.7349C284.443 36.7349 284.271 35.3296 284.271 53.9929C284.271 72.6809 284.468 71.2509 281.954 71.2509C280.771 71.2509 280.303 71.1523 280.007 70.8071Z" fill="url(#paint52_linear_2_324)"/>
<path d="M393.346 70.7085C393.001 70.2154 392.952 68.2184 392.952 53.9929C392.952 39.7674 393.001 37.7704 393.346 37.2773C393.667 36.8089 393.938 36.7349 395.293 36.7349C396.648 36.7349 396.92 36.8089 397.24 37.2773C397.585 37.7704 397.634 39.7674 397.634 53.9929C397.634 68.2184 397.585 70.2154 397.24 70.7085C396.92 71.1769 396.648 71.2509 395.293 71.2509C393.938 71.2509 393.667 71.1769 393.346 70.7085Z" fill="url(#paint53_linear_2_324)"/>
<path d="M416.758 70.7085C416.413 70.2154 416.364 68.2184 416.364 53.9929C416.364 39.7674 416.413 37.7704 416.758 37.2773C417.079 36.8089 417.35 36.7349 418.705 36.7349C420.06 36.7349 420.332 36.8089 420.652 37.2773C420.997 37.7704 421.046 39.7674 421.046 53.9929C421.046 68.2184 420.997 70.2154 420.652 70.7085C420.332 71.1769 420.06 71.2509 418.705 71.2509C417.35 71.2509 417.079 71.1769 416.758 70.7085Z" fill="url(#paint54_linear_2_324)"/>
<path d="M530.121 70.7085C529.776 70.2154 529.727 68.2184 529.727 53.9929C529.727 35.305 529.53 36.7349 532.044 36.7349C534.631 36.7349 534.41 35.157 534.41 54.0422C534.41 72.8781 534.631 71.2509 531.994 71.2509C530.713 71.2509 530.442 71.1769 530.121 70.7085Z" fill="url(#paint55_linear_2_324)"/>
<path d="M38.1246 68.1445L37.5824 67.7746V40.2111L38.1246 39.8413C38.445 39.5948 39.2089 39.4469 39.9483 39.4469C41.0572 39.4469 41.3283 39.5455 41.7473 40.0879C42.2648 40.7289 42.2648 40.9754 42.2648 53.9929C42.2648 67.0104 42.2648 67.2569 41.7473 67.8979C41.3283 68.4403 41.0572 68.5389 39.9483 68.5389C39.2089 68.5389 38.445 68.391 38.1246 68.1445Z" fill="url(#paint56_linear_2_324)"/>
<path d="M91.3314 67.8979C90.8139 67.2569 90.8139 67.0104 90.8139 53.9929C90.8139 40.9754 90.8139 40.7289 91.3314 40.0879C91.775 39.5455 92.0215 39.4469 93.1797 39.4469C94.1902 39.4469 94.6337 39.5701 95.0034 39.9399C95.4963 40.433 95.4963 40.7535 95.4963 53.9929C95.4963 67.2323 95.4963 67.5528 95.0034 68.0458C94.6337 68.4157 94.1902 68.5389 93.1797 68.5389C92.0215 68.5389 91.775 68.4403 91.3314 67.8979Z" fill="url(#paint57_linear_2_324)"/>
<path d="M173.298 68.0951C172.928 67.676 172.879 66.3447 172.879 53.9436C172.879 41.0001 172.904 40.2358 173.323 39.866C173.914 39.3236 176.034 39.2989 176.773 39.8413L177.315 40.2111V67.7746L176.773 68.1445C175.984 68.7115 173.816 68.6622 173.298 68.0951Z" fill="url(#paint58_linear_2_324)"/>
<path d="M226.603 68.0458C226.111 67.5528 226.111 67.2323 226.111 53.9929C226.111 40.7535 226.111 40.433 226.603 39.9399C226.973 39.5701 227.417 39.4469 228.452 39.4469C229.487 39.4469 229.93 39.5701 230.3 39.9399C230.793 40.433 230.793 40.7535 230.793 53.9929C230.793 67.2323 230.793 67.5528 230.3 68.0458C229.93 68.4157 229.487 68.5389 228.452 68.5389C227.417 68.5389 226.973 68.4157 226.603 68.0458Z" fill="url(#paint59_linear_2_324)"/>
<path d="M310.197 68.1445L309.654 67.7746V40.2111L310.197 39.8413C310.517 39.5948 311.281 39.4469 312.02 39.4469C313.129 39.4469 313.4 39.5455 313.819 40.0879C314.337 40.7289 314.337 40.9754 314.337 53.9929C314.337 67.0104 314.337 67.2569 313.819 67.8979C313.4 68.4403 313.129 68.5389 312.02 68.5389C311.281 68.5389 310.517 68.391 310.197 68.1445Z" fill="url(#paint60_linear_2_324)"/>
<path d="M363.724 68.3417C362.935 67.824 362.886 67.0597 362.886 53.9929C362.886 40.9261 362.935 40.1618 363.724 39.6441C363.872 39.5455 364.586 39.4469 365.301 39.4469C366.262 39.4469 366.706 39.5701 367.075 39.9399C367.568 40.433 367.568 40.7535 367.568 53.9929C367.568 67.2323 367.568 67.5528 367.075 68.0458C366.706 68.4157 366.262 68.5389 365.301 68.5389C364.586 68.5389 363.872 68.4403 363.724 68.3417Z" fill="url(#paint61_linear_2_324)"/>
<path d="M446.923 68.0458C446.43 67.5528 446.43 67.2323 446.43 53.9929C446.43 40.7535 446.43 40.433 446.923 39.9399C447.292 39.5701 447.736 39.4469 448.746 39.4469C449.905 39.4469 450.151 39.5455 450.595 40.0879C451.112 40.7289 451.112 40.9754 451.112 53.9929C451.112 67.0104 451.112 67.2569 450.595 67.8979C450.151 68.4403 449.905 68.5389 448.746 68.5389C447.736 68.5389 447.292 68.4157 446.923 68.0458Z" fill="url(#paint62_linear_2_324)"/>
<path d="M500.179 67.8979C499.661 67.2569 499.661 67.0104 499.661 53.9929C499.661 40.9754 499.661 40.7289 500.179 40.0879C500.598 39.5455 500.869 39.4469 501.978 39.4469C502.717 39.4469 503.481 39.5948 503.801 39.8413L504.344 40.2111V67.7746L503.801 68.1445C503.481 68.391 502.717 68.5389 501.978 68.5389C500.869 68.5389 500.598 68.4403 500.179 67.8979Z" fill="url(#paint63_linear_2_324)"/>
<path d="M0.591461 60.9207L0 60.4523V47.5335L0.591461 47.065C1.40472 46.3994 3.4009 46.424 4.06629 47.0897C4.53453 47.5581 4.55918 47.9033 4.55918 53.9929C4.55918 60.0825 4.53453 60.4277 4.06629 60.8961C3.4009 61.5618 1.40472 61.5864 0.591461 60.9207Z" fill="url(#paint64_linear_2_324)"/>
<path d="M129.062 60.9947C128.52 60.6249 128.52 60.5756 128.52 53.9929C128.52 47.4102 128.52 47.3609 129.062 46.9911C129.357 46.7692 130.121 46.5966 130.737 46.5966C131.354 46.5966 132.118 46.7692 132.413 46.9911C132.955 47.3609 132.955 47.4102 132.955 53.9929C132.955 60.5756 132.955 60.6249 132.413 60.9947C132.118 61.2166 131.354 61.3892 130.737 61.3892C130.121 61.3892 129.357 61.2166 129.062 60.9947Z" fill="url(#paint65_linear_2_324)"/>
<path d="M135.79 60.7729L135.173 60.1812V47.8047L135.79 47.213C136.677 46.3008 138.993 46.4241 139.659 47.4349C139.757 47.5828 139.856 50.5413 139.856 53.9929C139.856 57.4445 139.757 60.403 139.659 60.551C138.993 61.5618 136.677 61.6851 135.79 60.7729Z" fill="url(#paint66_linear_2_324)"/>
<path d="M264.186 60.7728L263.57 60.1811V47.8047L264.186 47.213C264.974 46.3994 266.995 46.3254 267.759 47.0897C268.228 47.5581 268.252 47.9033 268.252 53.9929C268.252 60.0825 268.228 60.4277 267.759 60.8961C266.995 61.6604 264.974 61.5864 264.186 60.7728Z" fill="url(#paint67_linear_2_324)"/>
<path d="M272.565 60.7728L271.949 60.1811V47.8047L272.565 47.213C273.353 46.3994 275.374 46.3254 276.138 47.0897C276.607 47.5581 276.631 47.9033 276.631 53.9929C276.631 60.0825 276.607 60.4277 276.138 60.8961C275.374 61.6604 273.353 61.5864 272.565 60.7728Z" fill="url(#paint68_linear_2_324)"/>
<path d="M401.134 60.9947C400.592 60.6249 400.592 60.5756 400.592 53.9929C400.592 47.4102 400.592 47.3609 401.134 46.9911C401.429 46.7692 402.193 46.5966 402.809 46.5966C403.426 46.5966 404.19 46.7692 404.485 46.9911C405.027 47.3609 405.027 47.4102 405.027 53.9929C405.027 60.5756 405.027 60.6249 404.485 60.9947C404.19 61.2166 403.426 61.3892 402.809 61.3892C402.193 61.3892 401.429 61.2166 401.134 60.9947Z" fill="url(#paint69_linear_2_324)"/>
<path d="M409.513 60.9947C408.971 60.6249 408.971 60.5756 408.971 53.9929C408.971 47.4102 408.971 47.3609 409.513 46.9911C409.808 46.7692 410.572 46.5966 411.189 46.5966C411.805 46.5966 412.569 46.7692 412.864 46.9911C413.407 47.3609 413.406 47.4102 413.406 53.9929C413.406 60.5756 413.407 60.6249 412.864 60.9947C412.569 61.2166 411.805 61.3892 411.189 61.3892C410.572 61.3892 409.808 61.2166 409.513 60.9947Z" fill="url(#paint70_linear_2_324)"/>
<path d="M537.86 60.8961C537.391 60.4277 537.367 60.0825 537.367 53.9929C537.367 47.9033 537.391 47.5581 537.86 47.0897C538.525 46.424 540.521 46.3994 541.335 47.065L541.926 47.5335V60.4523L541.335 60.9207C540.521 61.5864 538.525 61.5618 537.86 60.8961Z" fill="url(#paint71_linear_2_324)"/>
<circle cx="39.9043" cy="28.3192" r="5.14894" fill="black"/>
<circle cx="123.575" cy="55.3511" r="5.14894" fill="black"/>
<circle cx="208.532" cy="36.0426" r="5.14894" fill="black"/>
<circle cx="302.5" cy="72.0852" r="5.14894" fill="black"/>
<circle cx="325.671" cy="33.4681" r="5.14894" fill="black"/>
<circle cx="418.352" cy="61.7873" r="5.14894" fill="black"/>
<circle cx="493.011" cy="38.6171" r="5.14894" fill="black"/>
<line x1="40.2205" y1="27.3705" x2="125.178" y2="55.6897" stroke="black" stroke-width="2"/>
<line x1="123.353" y1="55.6632" x2="208.311" y2="36.3547" stroke="black" stroke-width="2"/>
<line x1="208.895" y1="36.3978" x2="301.576" y2="72.4404" stroke="black" stroke-width="2"/>
<line x1="325.255" y1="32.6711" x2="302.085" y2="73.8627" stroke="black" stroke-width="2"/>
<line x1="416.772" y1="61.4564" x2="324.091" y2="33.1372" stroke="black" stroke-width="2"/>
<line x1="418.06" y1="62.118" x2="494.007" y2="38.9478" stroke="black" stroke-width="2"/>
<defs>
<linearGradient id="paint0_linear_2_324" x1="539.646" y1="51.7133" x2="3.26159e-06" y2="54.0639" gradientUnits="userSpaceOnUse">
<stop/>
<stop offset="1" stop-color="#999999"/>
</linearGradient>
<linearGradient id="paint1_linear_2_324" x1="539.646" y1="51.7133" x2="3.26159e-06" y2="54.0639" gradientUnits="userSpaceOnUse">
<stop/>
<stop offset="1" stop-color="#999999"/>
</linearGradient>
<linearGradient id="paint2_linear_2_324" x1="539.646" y1="51.7133" x2="3.26159e-06" y2="54.0639" gradientUnits="userSpaceOnUse">
<stop/>
<stop offset="1" stop-color="#999999"/>
</linearGradient>
<linearGradient id="paint3_linear_2_324" x1="539.646" y1="51.7133" x2="3.26159e-06" y2="54.0639" gradientUnits="userSpaceOnUse">
<stop/>
<stop offset="1" stop-color="#999999"/>
</linearGradient>
<linearGradient id="paint4_linear_2_324" x1="539.646" y1="51.7133" x2="3.26159e-06" y2="54.0639" gradientUnits="userSpaceOnUse">
<stop/>
<stop offset="1" stop-color="#999999"/>
</linearGradient>
<linearGradient id="paint5_linear_2_324" x1="539.646" y1="51.7133" x2="3.26159e-06" y2="54.0639" gradientUnits="userSpaceOnUse">
<stop/>
<stop offset="1" stop-color="#999999"/>
</linearGradient>
<linearGradient id="paint6_linear_2_324" x1="539.646" y1="51.7133" x2="3.26159e-06" y2="54.0639" gradientUnits="userSpaceOnUse">
<stop/>
<stop offset="1" stop-color="#999999"/>
</linearGradient>
<linearGradient id="paint7_linear_2_324" x1="539.646" y1="51.7133" x2="3.26159e-06" y2="54.0639" gradientUnits="userSpaceOnUse">
<stop/>
<stop offset="1" stop-color="#999999"/>
</linearGradient>
<linearGradient id="paint8_linear_2_324" x1="539.646" y1="51.7133" x2="3.26159e-06" y2="54.0639" gradientUnits="userSpaceOnUse">
<stop/>
<stop offset="1" stop-color="#999999"/>
</linearGradient>
<linearGradient id="paint9_linear_2_324" x1="539.646" y1="51.7133" x2="3.26159e-06" y2="54.0639" gradientUnits="userSpaceOnUse">
<stop/>
<stop offset="1" stop-color="#999999"/>
</linearGradient>
<linearGradient id="paint10_linear_2_324" x1="539.646" y1="51.7133" x2="3.26159e-06" y2="54.0639" gradientUnits="userSpaceOnUse">
<stop/>
<stop offset="1" stop-color="#999999"/>
</linearGradient>
<linearGradient id="paint11_linear_2_324" x1="539.646" y1="51.7133" x2="3.26159e-06" y2="54.0639" gradientUnits="userSpaceOnUse">
<stop/>
<stop offset="1" stop-color="#999999"/>
</linearGradient>
<linearGradient id="paint12_linear_2_324" x1="539.646" y1="51.7133" x2="3.26159e-06" y2="54.0639" gradientUnits="userSpaceOnUse">
<stop/>
<stop offset="1" stop-color="#999999"/>
</linearGradient>
<linearGradient id="paint13_linear_2_324" x1="539.646" y1="51.7133" x2="3.26159e-06" y2="54.0639" gradientUnits="userSpaceOnUse">
<stop/>
<stop offset="1" stop-color="#999999"/>
</linearGradient>
<linearGradient id="paint14_linear_2_324" x1="539.646" y1="51.7133" x2="3.26159e-06" y2="54.0639" gradientUnits="userSpaceOnUse">
<stop/>
<stop offset="1" stop-color="#999999"/>
</linearGradient>
<linearGradient id="paint15_linear_2_324" x1="539.646" y1="51.7133" x2="3.26159e-06" y2="54.0639" gradientUnits="userSpaceOnUse">
<stop/>
<stop offset="1" stop-color="#999999"/>
</linearGradient>
<linearGradient id="paint16_linear_2_324" x1="539.646" y1="51.7133" x2="3.26159e-06" y2="54.0639" gradientUnits="userSpaceOnUse">
<stop/>
<stop offset="1" stop-color="#999999"/>
</linearGradient>
<linearGradient id="paint17_linear_2_324" x1="539.646" y1="51.7133" x2="3.26159e-06" y2="54.0639" gradientUnits="userSpaceOnUse">
<stop/>
<stop offset="1" stop-color="#999999"/>
</linearGradient>
<linearGradient id="paint18_linear_2_324" x1="539.646" y1="51.7133" x2="3.26159e-06" y2="54.0639" gradientUnits="userSpaceOnUse">
<stop/>
<stop offset="1" stop-color="#999999"/>
</linearGradient>
<linearGradient id="paint19_linear_2_324" x1="539.646" y1="51.7133" x2="3.26159e-06" y2="54.0639" gradientUnits="userSpaceOnUse">
<stop/>
<stop offset="1" stop-color="#999999"/>
</linearGradient>
<linearGradient id="paint20_linear_2_324" x1="539.646" y1="51.7133" x2="3.26159e-06" y2="54.0639" gradientUnits="userSpaceOnUse">
<stop/>
<stop offset="1" stop-color="#999999"/>
</linearGradient>
<linearGradient id="paint21_linear_2_324" x1="539.646" y1="51.7133" x2="3.26159e-06" y2="54.0639" gradientUnits="userSpaceOnUse">
<stop/>
<stop offset="1" stop-color="#999999"/>
</linearGradient>
<linearGradient id="paint22_linear_2_324" x1="539.646" y1="51.7133" x2="3.26159e-06" y2="54.0639" gradientUnits="userSpaceOnUse">
<stop/>
<stop offset="1" stop-color="#999999"/>
</linearGradient>
<linearGradient id="paint23_linear_2_324" x1="539.646" y1="51.7133" x2="3.26159e-06" y2="54.0639" gradientUnits="userSpaceOnUse">
<stop/>
<stop offset="1" stop-color="#999999"/>
</linearGradient>
<linearGradient id="paint24_linear_2_324" x1="539.646" y1="51.7133" x2="3.26159e-06" y2="54.0639" gradientUnits="userSpaceOnUse">
<stop/>
<stop offset="1" stop-color="#999999"/>
</linearGradient>
<linearGradient id="paint25_linear_2_324" x1="539.646" y1="51.7133" x2="3.26159e-06" y2="54.0639" gradientUnits="userSpaceOnUse">
<stop/>
<stop offset="1" stop-color="#999999"/>
</linearGradient>
<linearGradient id="paint26_linear_2_324" x1="539.646" y1="51.7133" x2="3.26159e-06" y2="54.0639" gradientUnits="userSpaceOnUse">
<stop/>
<stop offset="1" stop-color="#999999"/>
</linearGradient>
<linearGradient id="paint27_linear_2_324" x1="539.646" y1="51.7133" x2="3.26159e-06" y2="54.0639" gradientUnits="userSpaceOnUse">
<stop/>
<stop offset="1" stop-color="#999999"/>
</linearGradient>
<linearGradient id="paint28_linear_2_324" x1="539.646" y1="51.7133" x2="3.26159e-06" y2="54.0639" gradientUnits="userSpaceOnUse">
<stop/>
<stop offset="1" stop-color="#999999"/>
</linearGradient>
<linearGradient id="paint29_linear_2_324" x1="539.646" y1="51.7133" x2="3.26159e-06" y2="54.0639" gradientUnits="userSpaceOnUse">
<stop/>
<stop offset="1" stop-color="#999999"/>
</linearGradient>
<linearGradient id="paint30_linear_2_324" x1="539.646" y1="51.7133" x2="3.26159e-06" y2="54.0639" gradientUnits="userSpaceOnUse">
<stop/>
<stop offset="1" stop-color="#999999"/>
</linearGradient>
<linearGradient id="paint31_linear_2_324" x1="539.646" y1="51.7133" x2="3.26159e-06" y2="54.0639" gradientUnits="userSpaceOnUse">
<stop/>
<stop offset="1" stop-color="#999999"/>
</linearGradient>
<linearGradient id="paint32_linear_2_324" x1="539.646" y1="51.7133" x2="3.26159e-06" y2="54.0639" gradientUnits="userSpaceOnUse">
<stop/>
<stop offset="1" stop-color="#999999"/>
</linearGradient>
<linearGradient id="paint33_linear_2_324" x1="539.646" y1="51.7133" x2="3.26159e-06" y2="54.0639" gradientUnits="userSpaceOnUse">
<stop/>
<stop offset="1" stop-color="#999999"/>
</linearGradient>
<linearGradient id="paint34_linear_2_324" x1="539.646" y1="51.7133" x2="3.26159e-06" y2="54.0639" gradientUnits="userSpaceOnUse">
<stop/>
<stop offset="1" stop-color="#999999"/>
</linearGradient>
<linearGradient id="paint35_linear_2_324" x1="539.646" y1="51.7133" x2="3.26159e-06" y2="54.0639" gradientUnits="userSpaceOnUse">
<stop/>
<stop offset="1" stop-color="#999999"/>
</linearGradient>
<linearGradient id="paint36_linear_2_324" x1="539.646" y1="51.7133" x2="3.26159e-06" y2="54.0639" gradientUnits="userSpaceOnUse">
<stop/>
<stop offset="1" stop-color="#999999"/>
</linearGradient>
<linearGradient id="paint37_linear_2_324" x1="539.646" y1="51.7133" x2="3.26159e-06" y2="54.0639" gradientUnits="userSpaceOnUse">
<stop/>
<stop offset="1" stop-color="#999999"/>
</linearGradient>
<linearGradient id="paint38_linear_2_324" x1="539.646" y1="51.7133" x2="3.26159e-06" y2="54.0639" gradientUnits="userSpaceOnUse">
<stop/>
<stop offset="1" stop-color="#999999"/>
</linearGradient>
<linearGradient id="paint39_linear_2_324" x1="539.646" y1="51.7133" x2="3.26159e-06" y2="54.0639" gradientUnits="userSpaceOnUse">
<stop/>
<stop offset="1" stop-color="#999999"/>
</linearGradient>
<linearGradient id="paint40_linear_2_324" x1="539.646" y1="51.7133" x2="3.26159e-06" y2="54.0639" gradientUnits="userSpaceOnUse">
<stop/>
<stop offset="1" stop-color="#999999"/>
</linearGradient>
<linearGradient id="paint41_linear_2_324" x1="539.646" y1="51.7133" x2="3.26159e-06" y2="54.0639" gradientUnits="userSpaceOnUse">
<stop/>
<stop offset="1" stop-color="#999999"/>
</linearGradient>
<linearGradient id="paint42_linear_2_324" x1="539.646" y1="51.7133" x2="3.26159e-06" y2="54.0639" gradientUnits="userSpaceOnUse">
<stop/>
<stop offset="1" stop-color="#999999"/>
</linearGradient>
<linearGradient id="paint43_linear_2_324" x1="539.646" y1="51.7133" x2="3.26159e-06" y2="54.0639" gradientUnits="userSpaceOnUse">
<stop/>
<stop offset="1" stop-color="#999999"/>
</linearGradient>
<linearGradient id="paint44_linear_2_324" x1="539.646" y1="51.7133" x2="3.26159e-06" y2="54.0639" gradientUnits="userSpaceOnUse">
<stop/>
<stop offset="1" stop-color="#999999"/>
</linearGradient>
<linearGradient id="paint45_linear_2_324" x1="539.646" y1="51.7133" x2="3.26159e-06" y2="54.0639" gradientUnits="userSpaceOnUse">
<stop/>
<stop offset="1" stop-color="#999999"/>
</linearGradient>
<linearGradient id="paint46_linear_2_324" x1="539.646" y1="51.7133" x2="3.26159e-06" y2="54.0639" gradientUnits="userSpaceOnUse">
<stop/>
<stop offset="1" stop-color="#999999"/>
</linearGradient>
<linearGradient id="paint47_linear_2_324" x1="539.646" y1="51.7133" x2="3.26159e-06" y2="54.0639" gradientUnits="userSpaceOnUse">
<stop/>
<stop offset="1" stop-color="#999999"/>
</linearGradient>
<linearGradient id="paint48_linear_2_324" x1="539.646" y1="51.7133" x2="3.26159e-06" y2="54.0639" gradientUnits="userSpaceOnUse">
<stop/>
<stop offset="1" stop-color="#999999"/>
</linearGradient>
<linearGradient id="paint49_linear_2_324" x1="539.646" y1="51.7133" x2="3.26159e-06" y2="54.0639" gradientUnits="userSpaceOnUse">
<stop/>
<stop offset="1" stop-color="#999999"/>
</linearGradient>
<linearGradient id="paint50_linear_2_324" x1="539.646" y1="51.7133" x2="3.26159e-06" y2="54.0639" gradientUnits="userSpaceOnUse">
<stop/>
<stop offset="1" stop-color="#999999"/>
</linearGradient>
<linearGradient id="paint51_linear_2_324" x1="539.646" y1="51.7133" x2="3.26159e-06" y2="54.0639" gradientUnits="userSpaceOnUse">
<stop/>
<stop offset="1" stop-color="#999999"/>
</linearGradient>
<linearGradient id="paint52_linear_2_324" x1="539.646" y1="51.7133" x2="3.26159e-06" y2="54.0639" gradientUnits="userSpaceOnUse">
<stop/>
<stop offset="1" stop-color="#999999"/>
</linearGradient>
<linearGradient id="paint53_linear_2_324" x1="539.646" y1="51.7133" x2="3.26159e-06" y2="54.0639" gradientUnits="userSpaceOnUse">
<stop/>
<stop offset="1" stop-color="#999999"/>
</linearGradient>
<linearGradient id="paint54_linear_2_324" x1="539.646" y1="51.7133" x2="3.26159e-06" y2="54.0639" gradientUnits="userSpaceOnUse">
<stop/>
<stop offset="1" stop-color="#999999"/>
</linearGradient>
<linearGradient id="paint55_linear_2_324" x1="539.646" y1="51.7133" x2="3.26159e-06" y2="54.0639" gradientUnits="userSpaceOnUse">
<stop/>
<stop offset="1" stop-color="#999999"/>
</linearGradient>
<linearGradient id="paint56_linear_2_324" x1="539.646" y1="51.7133" x2="3.26159e-06" y2="54.0639" gradientUnits="userSpaceOnUse">
<stop/>
<stop offset="1" stop-color="#999999"/>
</linearGradient>
<linearGradient id="paint57_linear_2_324" x1="539.646" y1="51.7133" x2="3.26159e-06" y2="54.0639" gradientUnits="userSpaceOnUse">
<stop/>
<stop offset="1" stop-color="#999999"/>
</linearGradient>
<linearGradient id="paint58_linear_2_324" x1="539.646" y1="51.7133" x2="3.26159e-06" y2="54.0639" gradientUnits="userSpaceOnUse">
<stop/>
<stop offset="1" stop-color="#999999"/>
</linearGradient>
<linearGradient id="paint59_linear_2_324" x1="539.646" y1="51.7133" x2="3.26159e-06" y2="54.0639" gradientUnits="userSpaceOnUse">
<stop/>
<stop offset="1" stop-color="#999999"/>
</linearGradient>
<linearGradient id="paint60_linear_2_324" x1="539.646" y1="51.7133" x2="3.26159e-06" y2="54.0639" gradientUnits="userSpaceOnUse">
<stop/>
<stop offset="1" stop-color="#999999"/>
</linearGradient>
<linearGradient id="paint61_linear_2_324" x1="539.646" y1="51.7133" x2="3.26159e-06" y2="54.0639" gradientUnits="userSpaceOnUse">
<stop/>
<stop offset="1" stop-color="#999999"/>
</linearGradient>
<linearGradient id="paint62_linear_2_324" x1="539.646" y1="51.7133" x2="3.26159e-06" y2="54.0639" gradientUnits="userSpaceOnUse">
<stop/>
<stop offset="1" stop-color="#999999"/>
</linearGradient>
<linearGradient id="paint63_linear_2_324" x1="539.646" y1="51.7133" x2="3.26159e-06" y2="54.0639" gradientUnits="userSpaceOnUse">
<stop/>
<stop offset="1" stop-color="#999999"/>
</linearGradient>
<linearGradient id="paint64_linear_2_324" x1="539.646" y1="51.7133" x2="3.26159e-06" y2="54.0639" gradientUnits="userSpaceOnUse">
<stop/>
<stop offset="1" stop-color="#999999"/>
</linearGradient>
<linearGradient id="paint65_linear_2_324" x1="539.646" y1="51.7133" x2="3.26159e-06" y2="54.0639" gradientUnits="userSpaceOnUse">
<stop/>
<stop offset="1" stop-color="#999999"/>
</linearGradient>
<linearGradient id="paint66_linear_2_324" x1="539.646" y1="51.7133" x2="3.26159e-06" y2="54.0639" gradientUnits="userSpaceOnUse">
<stop/>
<stop offset="1" stop-color="#999999"/>
</linearGradient>
<linearGradient id="paint67_linear_2_324" x1="539.646" y1="51.7133" x2="3.26159e-06" y2="54.0639" gradientUnits="userSpaceOnUse">
<stop/>
<stop offset="1" stop-color="#999999"/>
</linearGradient>
<linearGradient id="paint68_linear_2_324" x1="539.646" y1="51.7133" x2="3.26159e-06" y2="54.0639" gradientUnits="userSpaceOnUse">
<stop/>
<stop offset="1" stop-color="#999999"/>
</linearGradient>
<linearGradient id="paint69_linear_2_324" x1="539.646" y1="51.7133" x2="3.26159e-06" y2="54.0639" gradientUnits="userSpaceOnUse">
<stop/>
<stop offset="1" stop-color="#999999"/>
</linearGradient>
<linearGradient id="paint70_linear_2_324" x1="539.646" y1="51.7133" x2="3.26159e-06" y2="54.0639" gradientUnits="userSpaceOnUse">
<stop/>
<stop offset="1" stop-color="#999999"/>
</linearGradient>
<linearGradient id="paint71_linear_2_324" x1="539.646" y1="51.7133" x2="3.26159e-06" y2="54.0639" gradientUnits="userSpaceOnUse">
<stop/>
<stop offset="1" stop-color="#999999"/>
</linearGradient>
</defs>
</svg>
