<svg width="676" height="191" viewBox="0 0 676 191" fill="none" xmlns="http://www.w3.org/2000/svg">
<g clip-path="url(#clip0_23_21)">
<path d="M163.606 111.016H186.42C188.523 111.016 190.469 109.77 191.014 107.513L193.273 97.468L204.251 148.313C205.264 152.985 212.894 152.985 213.595 148.235L223.094 85.7883L234.229 182.106C234.93 187.868 243.183 187.79 243.651 182.106L253.928 67.2566L264.129 182.028C264.674 187.868 272.849 187.868 273.55 182.028L284.685 85.7883L294.262 148.313C294.963 153.063 302.516 153.063 303.606 148.313L314.429 98.0908L316.764 107.513C317.466 110.082 319.257 111.016 321.358 111.016H343.473C346.587 111.016 349 108.603 349 105.566C349 102.529 346.587 100.038 343.473 100.038H324.785L318.556 75.8996C317.155 70.6826 310.38 70.6826 309.29 75.8996L299.635 121.372L288.656 49.6593C287.8 43.9754 279.935 44.1312 279.234 49.7374L269.424 134.843L258.678 13.3748C258.211 7.53495 249.646 7.53495 249.101 13.3748L238.356 134.843L228.545 49.7374C227.922 43.9754 220.058 43.9754 219.123 49.6593L208.144 121.372L198.567 75.8996C197.477 71.0721 190.547 71.0721 189.223 75.8996L182.994 100.038H163.606C160.492 100.038 158 102.529 158 105.566C158 108.603 160.492 111.016 163.606 111.016Z" fill="white"/>
</g>
<g clip-path="url(#clip1_23_21)">
<path d="M324.606 111.016H347.42C349.523 111.016 351.469 109.77 352.014 107.513L354.273 97.468L365.251 148.313C366.264 152.985 373.894 152.985 374.595 148.235L384.094 85.7883L395.229 182.106C395.93 187.868 404.183 187.79 404.651 182.106L414.928 67.2566L425.129 182.028C425.674 187.868 433.849 187.868 434.55 182.028L445.685 85.7883L455.262 148.313C455.963 153.063 463.516 153.063 464.606 148.313L475.429 98.0908L477.764 107.513C478.466 110.082 480.257 111.016 482.358 111.016H504.473C507.587 111.016 510 108.603 510 105.566C510 102.529 507.587 100.038 504.473 100.038H485.785L479.556 75.8996C478.155 70.6826 471.38 70.6826 470.29 75.8996L460.635 121.372L449.656 49.6593C448.8 43.9754 440.935 44.1312 440.234 49.7374L430.424 134.843L419.678 13.3748C419.211 7.53495 410.646 7.53495 410.101 13.3748L399.356 134.843L389.545 49.7374C388.922 43.9754 381.058 43.9754 380.123 49.6593L369.144 121.372L359.567 75.8996C358.477 71.0721 351.547 71.0721 350.223 75.8996L343.994 100.038H324.606C321.492 100.038 319 102.529 319 105.566C319 108.603 321.492 111.016 324.606 111.016Z" fill="white"/>
</g>
<g clip-path="url(#clip2_23_21)">
<path d="M5.60619 111.016H28.4205C30.5228 111.016 32.4693 109.77 33.0144 107.513L35.2726 97.468L46.2513 148.313C47.2636 152.985 54.8941 152.985 55.595 148.235L65.0942 85.7883L76.2288 182.106C76.9297 187.868 85.1833 187.79 85.6505 182.106L95.9284 67.2566L106.129 182.028C106.674 187.868 114.849 187.868 115.55 182.028L126.685 85.7883L136.262 148.313C136.963 153.063 144.516 153.063 145.606 148.313L156.429 98.0908L158.764 107.513C159.466 110.082 161.257 111.016 163.358 111.016H185.473C188.587 111.016 191 108.603 191 105.566C191 102.529 188.587 100.038 185.473 100.038H166.785L160.556 75.8996C159.155 70.6826 152.38 70.6826 151.29 75.8996L141.635 121.372L130.656 49.6593C129.8 43.9754 121.935 44.1312 121.234 49.7374L111.424 134.843L100.678 13.3748C100.211 7.53495 91.6459 7.53495 91.1009 13.3748L80.3557 134.843L70.5448 49.7374C69.922 43.9754 62.0576 43.9754 61.1234 49.6593L50.1443 121.372L40.567 75.8996C39.477 71.0721 32.5471 71.0721 31.2234 75.8996L24.9944 100.038H5.60619C2.49153 100.038 0 102.529 0 105.566C0 108.603 2.49153 111.016 5.60619 111.016Z" fill="white"/>
</g>
<g clip-path="url(#clip3_23_21)">
<path d="M490.606 111.016H513.42C515.523 111.016 517.469 109.77 518.014 107.513L520.273 97.468L531.251 148.313C532.264 152.985 539.894 152.985 540.595 148.235L550.094 85.7883L561.229 182.106C561.93 187.868 570.183 187.79 570.651 182.106L580.928 67.2566L591.129 182.028C591.674 187.868 599.849 187.868 600.55 182.028L611.685 85.7883L621.262 148.313C621.963 153.063 629.516 153.063 630.606 148.313L641.429 98.0908L643.764 107.513C644.466 110.082 646.257 111.016 648.358 111.016H670.473C673.587 111.016 676 108.603 676 105.566C676 102.529 673.587 100.038 670.473 100.038H651.785L645.556 75.8996C644.155 70.6826 637.38 70.6826 636.29 75.8996L626.635 121.372L615.656 49.6593C614.8 43.9754 606.935 44.1312 606.234 49.7374L596.424 134.843L585.678 13.3748C585.211 7.53495 576.646 7.53495 576.101 13.3748L565.356 134.843L555.545 49.7374C554.922 43.9754 547.058 43.9754 546.123 49.6593L535.144 121.372L525.567 75.8996C524.477 71.0721 517.547 71.0721 516.223 75.8996L509.994 100.038H490.606C487.492 100.038 485 102.529 485 105.566C485 108.603 487.492 111.016 490.606 111.016Z" fill="white"/>
</g>
<circle cx="112.149" cy="81.1489" r="4.64894" fill="black" stroke="black"/>
<circle cx="195.819" cy="108.181" r="4.64894" fill="black" stroke="black"/>
<circle cx="280.777" cy="88.8723" r="4.64894" fill="black" stroke="black"/>
<circle cx="374.745" cy="124.915" r="4.64894" fill="black" stroke="black"/>
<circle cx="397.915" cy="86.2979" r="4.64894" fill="black" stroke="black"/>
<circle cx="490.596" cy="114.617" r="4.64894" fill="black" stroke="black"/>
<circle cx="565.256" cy="91.4468" r="4.64894" fill="black" stroke="black"/>
<line x1="112.465" y1="80.2002" x2="197.423" y2="108.519" stroke="black" stroke-width="2"/>
<line x1="195.598" y1="108.493" x2="280.555" y2="89.1844" stroke="black" stroke-width="2"/>
<line x1="281.139" y1="89.2275" x2="373.82" y2="125.27" stroke="black" stroke-width="2"/>
<line x1="397.5" y1="85.5009" x2="374.329" y2="126.692" stroke="black" stroke-width="2"/>
<line x1="489.017" y1="114.286" x2="396.336" y2="85.9669" stroke="black" stroke-width="2"/>
<line x1="490.304" y1="114.948" x2="566.251" y2="91.7776" stroke="black" stroke-width="2"/>
<defs>
<clipPath id="clip0_23_21">
<rect width="191" height="191" fill="white" transform="translate(158)"/>
</clipPath>
<clipPath id="clip1_23_21">
<rect width="191" height="191" fill="white" transform="translate(319)"/>
</clipPath>
<clipPath id="clip2_23_21">
<rect width="191" height="191" fill="white"/>
</clipPath>
<clipPath id="clip3_23_21">
<rect width="191" height="191" fill="white" transform="translate(485)"/>
</clipPath>
</defs>
</svg>
